<svg xmlns="http://www.w3.org/2000/svg" xmlns:xlink="http://www.w3.org/1999/xlink" width="630.039" height="520.499" viewBox="0 0 630.039 520.499"><defs><clipPath id="a"><rect width="32.804" height="46.08" fill="none"/></clipPath><clipPath id="b"><rect width="552.21" height="330.742" fill="none"/></clipPath><clipPath id="c"><rect width="97.935" height="64.894" fill="none"/></clipPath><clipPath id="d"><rect width="50.205" height="34.4" fill="none"/></clipPath><clipPath id="e"><rect width="138.729" height="71.52" fill="none"/></clipPath></defs><path d="M137.424,360.356c-12.02-29.831-28.443-57.847-46.432-84.471-.339-.5-1.159-.029-.817.477,17.894,26.481,34.244,54.335,46.232,83.993Z" transform="translate(48.535 148.509)" fill="#e2d1a8"/><path d="M104.2,308.427s18.648-37.26,4.95-36.458-7.335,32.721-7.335,32.721Z" transform="translate(54.056 146.507)" fill="#e2d1a8"/><path d="M112.926,300.683s-41.352-9.2-31.993-19.234,28.6,13.371,28.6,13.371Z" transform="translate(42.857 150.275)" fill="#e2d1a8"/><path d="M111.767,321.389s17.08-38.727,3.439-37.237-5.679,33.049-5.679,33.049Z" transform="translate(57.76 153.055)" fill="#e2d1a8"/><path d="M120.375,312.616s-41.764-7.107-32.922-17.6,29.237,11.916,29.237,11.916Z" transform="translate(46.45 157.424)" fill="#e2d1a8"/><path d="M117.931,334.413s19.048-37.8,5.349-37.011-7.37,32.713-7.37,32.713Z" transform="translate(61.656 160.209)" fill="#e2d1a8"/><path d="M126.783,326.117s-41.342-9.245-31.973-19.269,29.234,13.6,29.234,13.6Z" transform="translate(50.332 163.969)" fill="#e2d1a8"/><path d="M341.153,357.684c14.932-28.485,34.066-54.725,54.618-79.423.388-.465,1.157.086.766.555-20.443,24.567-39.49,50.653-54.374,78.967Z" transform="translate(183.786 149.81)" fill="#e2d1a8"/><path d="M365.007,309.639s-14.841-38.934-1.293-36.771,4.039,33.289,4.039,33.289Z" transform="translate(192.868 146.952)" fill="#e2d1a8"/><path d="M364.417,301s42.062-5.032,33.752-15.949S368.378,295.5,368.378,295.5Z" transform="translate(196.319 151.887)" fill="#e2d1a8"/><path d="M356.022,321.763s-13.135-40.236.289-37.394,2.357,33.45,2.357,33.45Z" transform="translate(188.697 153.117)" fill="#e2d1a8"/><path d="M356.041,312.135s42.263-2.908,34.51-14.23-30.279,8.942-30.279,8.942Z" transform="translate(191.806 158.634)" fill="#e2d1a8"/><path d="M348.737,334.129s-15.186-39.507-1.634-37.36,4.075,33.286,4.075,33.286Z" transform="translate(183.96 159.829)" fill="#e2d1a8"/><path d="M348.088,324.922s42.058-5.078,33.733-15.986-30.444,10.619-30.444,10.619Z" transform="translate(187.522 164.767)" fill="#e2d1a8"/><g transform="translate(473.293 456.993)" opacity="0.8"><g clip-path="url(#a)"><path d="M316.988,337.228h-4.57c2.4-10.742,13.53-21.959,21.417-28.777a2.383,2.383,0,0,1,3.668,2.91c-8.96,17.24-17.181,23.767-20.516,25.867" transform="translate(-304.987 -291.148)" fill="#e2d1a8"/><path d="M307.8,342.969c-.74-5.387-.292-19.023,13.881-44.738a2.383,2.383,0,0,1,4.469,1.136c.065,10.728-1.316,29.739-10.586,43.6Z" transform="translate(-307.589 -296.996)" fill="#e2d1a8"/></g></g><g transform="translate(47.274 25.46)" opacity="0.5"><g clip-path="url(#b)"><path d="M108,83.229c-45.711,21.9-70.393,62.955-76.117,114.078C14.379,353.621,199.718,370.368,241.529,325.918c78.4-83.348,99.9-90.189,217.517-79.1,79.858,7.527,220.439-132.772,24.4-218.666-12.919-5.661-28.274-8.978-43.846-10.8-37.451-4.384-69.306,9.923-99.64,25.767-33,17.235-58.991,40.518-109.014,38.291S154.615,60.9,108,83.229" transform="translate(-30.723 -16.547)" fill="#e2d1a8"/></g></g><g transform="translate(208.101 12.417)" opacity="0.5"><g clip-path="url(#c)"><path d="M183.845,8.875s-51.763,7.8-48.45,37.911c4.262,38.734,63.7,27.372,83.08,11.1,28.317-23.776,15.175-55.266-34.63-49.014" transform="translate(-135.243 -8.07)" fill="#e2d1a8"/></g></g><g transform="translate(324.427 6.38)" opacity="0.5"><g clip-path="url(#d)"><path d="M238.2,5.063s-28.649,9.022-27.309,23.609c1.7,18.534,30.5,6.872,43.317-1.78S261.909-.157,238.2,5.063" transform="translate(-210.842 -4.147)" fill="#e2d1a8"/></g></g><g transform="translate(311.1 265.819)" opacity="0.5"><g clip-path="url(#e)"><path d="M288.44,172.983s-81.312,6.186-86.021,41.822,61.2,33.373,92.848,22.113c59.725-21.251,64.255-67.813-6.827-63.935" transform="translate(-202.181 -172.754)" fill="#e2d1a8"/></g></g><path d="M25.362,182.353a9.936,9.936,0,1,1,9.936-9.936,9.946,9.946,0,0,1-9.936,9.936m0-18.514a8.578,8.578,0,1,0,8.578,8.578,8.588,8.588,0,0,0-8.578-8.578" transform="translate(8.31 87.532)" fill="#f27521"/><path d="M384.316,55.876a9.936,9.936,0,1,1,9.936-9.936,9.946,9.946,0,0,1-9.936,9.936m0-18.514a8.578,8.578,0,1,0,8.578,8.578,8.588,8.588,0,0,0-8.578-8.578" transform="translate(201.687 19.396)" fill="#0e4284"/><path d="M618.676,334.462c0,6.957-137.9,12.61-308,12.627S2.665,341.478,2.663,334.522s137.9-12.61,308.006-12.627,308.006,5.61,308.007,12.567" transform="translate(1.435 173.41)" fill="#e2d1a8"/><path d="M300.578,212.894s5.715,5.113,16.544,0l-2.1-11.731s-15.343,1.8-14.439,11.731" transform="translate(161.907 108.37)" fill="#192827"/><path d="M378.433,137.537s3.61,4.813-6.918,6.918-79.493,8.661-83.965,9.746-4.775-2.827-4.775-2.827,1.2-9.626,13.536-13.838,59.261-15.943,82.122,0" transform="translate(152.337 69.72)" fill="#192827"/><path d="M369.337,195.844s1.8,6.618-7.821,7.22-13.838-10.528-13.838-10.528,13.838-6.618,21.659,3.308" transform="translate(187.301 102.558)" fill="#192827"/><path d="M333.532,295.123c-28.613,15.158-56.657,27.831-69.872,33.633-4.988,2.193-7.864,3.405-7.864,3.405V316.48s1.036-.74,2.907-2.091c8.706-6.3,35.486-25.926,59.927-46.306,24.359-20.308,46.394-41.367,45.9-50.735-.125-2.3,3.828-14.041,3.405-17.444,5.179-3.742,13.581-6.992,19.345-8.958,3.741-1.276,7.655-.168,11.6-.451,4.619-.332,9.131.869,14.029,1.423,3.33,11,4.735,26.284,5.03,32.25,1.036,21.034-40.893,47.91-84.4,70.955" transform="translate(137.802 102.526)" fill="#d24f55"/><path d="M349.3,215.3a17.149,17.149,0,0,0,17.223,1.033c.526-.266.063-1.056-.462-.791a16.223,16.223,0,0,1-16.3-1.033c-.489-.329-.949.463-.462.791" transform="translate(188.061 115.517)" fill="#892a37"/><path d="M332.749,267.9q-2.287,1.214-4.573,2.4c-.754.394-1.509.788-2.265,1.176q-2.246,1.17-4.478,2.308-1.209.619-2.416,1.231-2.456,1.244-4.879,2.457l-2.274,1.137c-20.677,10.286-39.036,18.551-48.987,22.921l-5.629-14.347c6.32-4.576,22.838-16.19,40.4-30q.992-.782,1.994-1.574,1.872-1.479,3.764-2.987c.709-.563,1.416-1.131,2.126-1.7q2.156-1.727,4.316-3.484c.659-.534,1.314-1.069,1.973-1.608q3.024-2.474,6.026-4.973c4.227,5.406,11.8,16.132,14.9,27.04" transform="translate(138.585 129.753)" fill="#fff"/><path d="M309.762,268.558c-.756.394-1.509.788-2.265,1.176A68.652,68.652,0,0,0,291.434,245.7c.659-.535,1.314-1.071,1.973-1.608a71.492,71.492,0,0,1,16.355,24.47" transform="translate(157.001 131.494)" fill="#f27521"/><path d="M299.994,272.305q-1.142.572-2.274,1.137A68.686,68.686,0,0,0,283.5,252.016q.992-.78,1.994-1.573a71.492,71.492,0,0,1,14.5,21.862" transform="translate(152.729 134.918)" fill="#f27521"/><path d="M305.274,270.258c-.806.412-1.613.825-2.416,1.231A80.747,80.747,0,0,0,287.246,249.1q1.064-.845,2.126-1.7a82.646,82.646,0,0,1,15.9,22.862" transform="translate(154.745 133.276)" fill="#0e4284"/><path d="M244.869,323.918l-.231-53.551a24.825,24.825,0,0,1,2.507-.125c.375,0,.743.011,1.119.015,11.924.157,24.295-8.452,24.977-2.72-5.832,10.449.1,19.323,2.405,18.049,0,0,3.61,3.91-6.918,5.415-4.175.6-4.585,2.939-8.189,7.634-2.757,3.6-1.142,8.084-2.134,13.391a16.358,16.358,0,0,1-1.837,5.082,12.83,12.83,0,0,1-8.074,6.429,11.653,11.653,0,0,1-3.624.38" transform="translate(131.791 143.066)" fill="#192827"/><path d="M244.869,322.283l-.231-53.551a24.825,24.825,0,0,1,2.507-.125l1.119,0,.229,53.3a11.652,11.652,0,0,1-3.624.38" transform="translate(131.791 144.701)" fill="#fff"/><path d="M246.917,297.663s6.52-8.088,6.2-15.72-6.278-13.264-6.278-13.264Z" transform="translate(132.979 144.743)" fill="#fff"/><path d="M333.176,241.011c-1.577-5.692,42.258-20.69,54.443-11.111-11.6-38.182-34.446-102.83-34.446-102.83l-39.707,3.911s16.106,82.257,19.709,110.029" transform="translate(168.871 68.454)" fill="#0e4284"/><path d="M345.3,59.827c-3.156,15.581,20.051,59.1,21.219,59.85,4.919,2.011,49.279-9.939,49.279-9.939l8.328,9.122s-56.243,30.325-70.166,25.994-24.086-48.536-24.086-48.536Z" transform="translate(177.711 32.229)" fill="#d24f55"/><path d="M356.306,99.168a13.619,13.619,0,0,0-7.663,2.456.5.5,0,0,1-.569-.825,14.53,14.53,0,0,1,8.144-2.628c.642-.011.734.988.088,1" transform="translate(187.4 52.886)" fill="#892a37"/><path d="M352.505,99.395l-2.865-.988c-.611-.211-.188-1.119.415-.911l2.867.988c.609.211.186,1.119-.417.911" transform="translate(188.198 52.506)" fill="#892a37"/><path d="M398.191,102.15l-8.628,3.148-5.215-9.977,8.086-6.621Z" transform="translate(207.056 47.784)" fill="#d24f55"/><path d="M357.451,229.455c-.571,8.354-11.791,41.956-23.613,75.467-11.687,33.122-23.959,66.151-27.118,74.623l-.775,2.077-14.5,2.96s.223-2.13.617-5.83c1.488-13.927,5.422-50.105,9.171-78.695,2.2-16.718,4.327-30.845,5.864-36.4,4.864-17.586,11.568-43.58,11.568-43.58s-2.542-12.353-5.324-17.157c12.787-1.736,22.784-2.822,35.5-5.03,2.123,9.752,8.886,27.509,8.606,31.567" transform="translate(157.007 106.605)" fill="#d24f55"/><path d="M338.341,203.592a62.1,62.1,0,0,1,1.366,21.088c-1.094,8.578-3.965,16.9-6.7,25.066-2.4,7.158-4.885,14.287-7.317,21.436-.191.559.694.8.882.243,3.881-11.4,8.106-22.745,11.383-34.344,1.973-6.986,3.379-14.13,3.031-21.421a75.224,75.224,0,0,0-1.763-12.311c-.125-.575-1.008-.332-.883.243" transform="translate(175.442 109.37)" fill="#892a37"/><path d="M324.572,213.746a15.3,15.3,0,0,0,15.932,3.381c.548-.2.311-1.091-.243-.883A14.4,14.4,0,0,1,325.22,213.1c-.422-.411-1.071.235-.648.648" transform="translate(174.779 114.729)" fill="#892a37"/><path d="M333.622,269.221q-.84,2.382-1.685,4.765-.427,1.2-.851,2.4-.845,2.368-1.685,4.725c-.3.851-.608,1.7-.908,2.551q-.926,2.58-1.839,5.129-.432,1.2-.86,2.388c-8.9,24.724-16.135,46.091-18.586,52.666l-15.363-.791c1.1-10.3,3.541-32.767,6.253-55.334.1-.857.2-1.711.306-2.567.2-1.6.389-3.2.585-4.792.114-.914.225-1.825.34-2.734q.342-2.774.688-5.5c.109-.863.217-1.722.329-2.576q.332-2.631.669-5.192c8.558-.5,23.184-.412,32.605,4.864" transform="translate(157.223 142.307)" fill="#fff"/><path d="M329.076,272.189q-.429,1.2-.851,2.4a68.6,68.6,0,0,0-31.068-4.259q.164-1.295.328-2.574a71.6,71.6,0,0,1,31.591,4.436" transform="translate(160.084 144.103)" fill="#f27521"/><path d="M324.467,281.5q-.436,1.2-.862,2.388a68.636,68.636,0,0,0-27.7-3.459c.1-.857.2-1.711.306-2.567a71.588,71.588,0,0,1,28.251,3.637" transform="translate(159.413 149.592)" fill="#f27521"/><path d="M326.9,276.464c-.3.851-.608,1.7-.908,2.551a80.738,80.738,0,0,0-29.5-3.3c.114-.914.225-1.825.34-2.734a82.579,82.579,0,0,1,30.071,3.484" transform="translate(159.725 146.953)" fill="#0e4284"/><path d="M308.48,251.756c-4.211-10.528-7.469-22.034-14.138-44.22-11.81-39.288-7.821-67.081-7.821-67.081l45.423-11.43s23.462,73.4,28.276,114.307c-1.333-8.894-53.07-.471-51.739,8.423" transform="translate(154.005 69.508)" fill="#0e4284"/><path d="M288.635,139.249c.046,26.8,6.663,53.412,15.132,78.682q3.679,10.977,7.929,21.747c.214.542,1.1.306.883-.243-9.9-25.224-18.175-51.5-21.581-78.465a175.565,175.565,0,0,1-1.448-21.721.458.458,0,0,0-.916,0" transform="translate(155.493 74.777)" fill="#fff"/><path d="M291.177,137.88c.046,26.8,6.663,53.411,15.132,78.682q3.679,10.975,7.929,21.747c.214.542,1.1.306.883-.245-9.9-25.223-18.175-51.5-21.581-78.464a175.565,175.565,0,0,1-1.448-21.721.458.458,0,0,0-.916,0" transform="translate(156.863 74.039)" fill="#fff"/><path d="M321.94,150.746a373.058,373.058,0,0,1,15.42,71.283c.068.579.983.585.916,0A374.208,374.208,0,0,0,322.823,150.5c-.18-.559-1.065-.32-.883.243" transform="translate(173.422 80.907)" fill="#0e77c0"/><path d="M319.828,156.127A25.8,25.8,0,0,0,330.807,145.5c.283-.517-.506-.98-.791-.462a24.925,24.925,0,0,1-10.649,10.3c-.526.266-.063,1.057.462.791" transform="translate(171.924 78.01)" fill="#0e77c0"/><path d="M313.184,123.457a1.992,1.992,0,1,0,1.993-1.993,1.993,1.993,0,0,0-1.993,1.993" transform="translate(168.719 65.434)" fill="#951836"/><path d="M295.571,117.177a15.221,15.221,0,0,0-3.088,7.931c-.057.637-1.06.643-1,0a16.163,16.163,0,0,1,3.227-8.437c.383-.508,1.254-.009.865.506" transform="translate(157.025 62.738)" fill="#951836"/><path d="M306.372,119.855a14.409,14.409,0,0,0-2.12,8.412c.034.645-.968.643-1,0a15.4,15.4,0,0,1,2.257-8.918c.334-.551,1.2-.046.865.506" transform="translate(163.355 64.166)" fill="#951836"/><path d="M323.277,119.284a20.682,20.682,0,0,1,2.067,8.2c.028.645-.976.643-1,0a19.373,19.373,0,0,0-1.931-7.692c-.279-.579.585-1.088.866-.506" transform="translate(173.66 64.121)" fill="#951836"/><path d="M329.553,117.235a18.639,18.639,0,0,1,3.1,7.934c.091.631-.876.9-.966.268a18.071,18.071,0,0,0-2.994-7.7c-.363-.537.5-1.039.865-.506" transform="translate(177.024 63.034)" fill="#951836"/><path d="M287.332,120.5a42.567,42.567,0,0,0,12.919,5.933,89.193,89.193,0,0,0,27.046,3.634,79.87,79.87,0,0,0,16.035-1.7,114.639,114.639,0,0,0,15.526-4.922c.777-.294.437-1.553-.348-1.256a107.928,107.928,0,0,1-17.026,5.241,85.908,85.908,0,0,1-31.061.066c-7.771-1.382-16.143-3.465-22.585-8.223a.545.545,0,0,0-.149-.085Z" transform="translate(154.791 64.207)" fill="#951836"/><path d="M378.431,181.554c-23.156-12.03-91.417.294-95.655,13.828.045-.437,1.606-14.47,4.81-33.983,2.551-15.53,9.611-39.28,14.821-55.382.475-1.471.936-2.879,1.38-4.211.891-2.7,1.7-5.078,2.385-7.049,4.736-13.612-.406-31.019,4.33-35.161a32.627,32.627,0,0,1,7.015-3.922c4.295-1.943,9.539-3.941,13.581-5.409,3.73-1.351,6.438-2.256,6.438-2.256,7.6-1.408,15.858,2.4,22.441,6.783a78.631,78.631,0,0,1,7.6,5.809,10.151,10.151,0,0,1,3.308,9.846,50.724,50.724,0,0,0-1.1,12.179c.3,10.651,6.238,16.506,4.133,25.229-1.88,7.787-9.928,8.121-9.459,20.04.6,15.1,13.97,53.658,13.97,53.658" transform="translate(152.337 25.703)" fill="#192827"/><path d="M305.008,83.029c-5.287,21.627-11.239,43.249-13.173,65.5a179.365,179.365,0,0,0-.648,18.834.458.458,0,0,0,.916,0c-.411-22.307,3.991-44.024,9.263-65.585q2.262-9.253,4.525-18.509c.14-.572-.743-.816-.883-.243" transform="translate(156.852 44.553)" fill="#47574a"/><path d="M336.263,73.263c-10.631.232-18.855-15.653-22.082-23,3.73-1.351,6.436-2.257,6.436-2.257,7.6-1.408,15.86,2.4,22.441,6.784,1.509,7.7,1.977,18.28-6.795,18.469" transform="translate(169.256 25.702)" fill="#fff"/><path d="M296.209,100.049c.891-2.694,2.042-6.109,2.728-8.078,4.735-13.612-.406-31.021,4.328-35.163a32.77,32.77,0,0,1,7.015-3.922,26.577,26.577,0,0,1,12.047,20.3c.8,11.659-12.567,23-26.118,26.858" transform="translate(159.574 28.49)" fill="#fff"/><path d="M343.363,340.9l-53.549.439a24.794,24.794,0,0,1-.134-2.507c0-.375.022-.742.011-1.117-.2-7.338.736-30.216,4.111-27.982,3.334,5.8,10.528,3.61,10.528,3.61s5.669-7.217,9.326-5.115-.346,13.516,4.362,17.1c3.61,2.742,8.089,1.111,13.4,2.082a16.3,16.3,0,0,1,5.089,1.819,12.814,12.814,0,0,1,6.461,8.047,11.66,11.66,0,0,1,.394,3.622" transform="translate(156.049 165.843)" fill="#192827"/><path d="M343.361,330.6l-53.549.439a24.812,24.812,0,0,1-.134-2.507l-.009-1.117,53.3-.437a11.661,11.661,0,0,1,.394,3.622" transform="translate(156.051 176.148)" fill="#fff"/><path d="M318.728,329.444s-8.112-6.489-15.744-6.143-13.238,6.329-13.238,6.329Z" transform="translate(156.092 174.161)" fill="#fff"/><path d="M319.86,55.129a2.1,2.1,0,0,0-.748.391c-3.656,2.985-36.334,29.817-47.319,44.509-11.644,15.573,1.5,80.789,1.5,80.789l7.807.819s9.266-66.587,10.586-68.552c5.622-8.381,23.142-21.524,33.79-29.085,10.959-7.78,6.283-22.63-5.621-28.871" transform="translate(143.828 29.698)" fill="#d24f55"/><path d="M277.488,131.163a7.383,7.383,0,0,0-6.2,8.146,18.17,18.17,0,0,1-.291,6.144c-1.194,4.25-3.787,8.94-3.784,11.257.009,3.421,2.705.9,3,.546a51,51,0,0,0,3.9-5.9s-1.974,7.238-3.811,9.552-1.259,4.913,1.691,3.731,6.783-8.7,7.281-11.073c0,0-.066,4.778-2.451,8s-2.805,4.689-2.994,6.3,3.07,1.663,6.283-2.913a17.673,17.673,0,0,0,3.639-9.84,29.611,29.611,0,0,1,.7,5.769c.135,3.631-2.917,7.129-1.891,9.045,1.049,1.959,4.385-2.225,5.195-5.356s1.663-5.341,1.1-9.435a52.116,52.116,0,0,0-2.173-10.362c-.928-2.37-3.114-11.233-6.233-13.165a4.533,4.533,0,0,0-2.951-.443" transform="translate(143.955 70.627)" fill="#d24f55"/><path d="M278.294,135.68s5.11,5.858,5.615,8.435,2.634,6.193.936,6.677-4.2-4.038-4.2-4.038Z" transform="translate(149.923 73.093)" fill="#d24f55"/><path d="M285.842,95.37a17.391,17.391,0,0,0-9.24-5.755c-.626-.154-.362-1.12.266-.966a18.276,18.276,0,0,1,9.68,6.013c.414.489-.292,1.2-.706.708" transform="translate(148.818 47.747)" fill="#892a37"/><path d="M279.9,87.43a7.543,7.543,0,0,1,2.165,5.229.5.5,0,0,1-1,0,6.48,6.48,0,0,0-1.873-4.521c-.449-.462.257-1.171.708-.708" transform="translate(150.331 47.018)" fill="#892a37"/><path d="M316.64,59.388c1.471,5.5,17.151,21.177,21.933,9.263l.515-7.154.562-7.8.394-5.466L326.469,35.061Z" transform="translate(170.58 18.887)" fill="#d24f55"/><path d="M323.871,41.2c3.454,14.626,9.114,16.738,11.322,16.987l.562-7.806Z" transform="translate(174.476 22.196)" fill="#192827"/><path d="M320.4,39.03c.166,5.595,1.2,7.691,3.739,13.742a20.153,20.153,0,0,0,10.5,10.219c10.7,3.693,16.924.579,19.4-14.59,1.536-9.419,5.406-13.9,3.984-18.055h0q-.173-.307-.349-.6a21.423,21.423,0,0,0-12.831-9.523C318.361,13.108,320.165,31,320.4,39.03" transform="translate(172.547 10.011)" fill="#d24f55"/><path d="M333.575,34.057a1.058,1.058,0,1,0,1.214-.874,1.058,1.058,0,0,0-1.214.874" transform="translate(179.696 17.868)" fill="#192827"/><path d="M339.116,35.431a1.058,1.058,0,1,0,1.214-.876,1.058,1.058,0,0,0-1.214.876" transform="translate(182.681 18.608)" fill="#192827"/><path d="M339.353,25.16s-.077,9.149-4.3,9.9-.737,6.123-3.808,6.933-4.319-6.58-10.523-5.918c0,0-4.058-7.975,2.768-17.811,0,0,7.451,8.152,15.866,6.9" transform="translate(172.133 9.838)" fill="#892a37"/><path d="M328.532,24.318s2.3,3.225,5.8,2.817,7.431-3.207,8.915-2.013,2.927,4.256,5.616,4.062,2.624-.709,4.5,1.469,2.6-4.419-4.227-7.974S333,15.53,328.532,24.318" transform="translate(176.987 10.15)" fill="#192827"/><path d="M365.132,37.177a2.012,2.012,0,0,0,2.08,1.3c1.346-.109,2.894-.568,3.442-2.013C371.7,33.71,369.4,29.3,369.4,29.3a10.623,10.623,0,0,0,.663-10,10.882,10.882,0,0,0-4.331-4.433s1.7-5.366-6.179-9.032c-4.71-2.191-7.389-.069-7.389-.069s-1.71-3.234-7.366-3.915c-5.886-.706-7.014,2.764-7.014,2.764S330.66,1.639,326.247,7.9c0,0-7.221-1.193-10.157,6.789,0,0-6.012,1.839-4.318,9.871,0,0-2.508.209-2.2,6.189s3.984,6.333,3.984,6.333a6.421,6.421,0,0,0,2.07,6.655c3.356,3.173,6.563,2.419,9.318.954,0,0,18.2-21.794,30.536-15.007,7.2,3.961,9.217,6.26,9.648,7.489" transform="translate(166.761 0.947)" fill="#192827"/><path d="M325.783,33.963s7.344-12.07,18.872-10.853,13.867,8.412,12.938,14.539c0,0,2.9-5.886,2-9.774S351.96,15.99,342.521,16.964c-14.41,1.486-25.415,17.248-22,19.854a4.889,4.889,0,0,1,5.264-2.854" transform="translate(172.333 9.094)" fill="#0e4284"/><path d="M337.145,34.486q.39,1.616.782,3.228c.117.479.422.972-.112,1.176a7.2,7.2,0,0,1-1.529.182.416.416,0,0,0,.1.825c.712-.085,2.44.074,2.619-.922a5.573,5.573,0,0,0-.389-1.928q-.321-1.329-.645-2.657c-.123-.512-.949-.422-.823.1" transform="translate(180.973 18.342)" fill="#192827"/><path d="M341.5,41.4s-3.581-.1-9.389-2.974c0,0-.669,5.812,3.971,6.735,3.935.783,5.418-3.761,5.418-3.761" transform="translate(178.899 20.698)" fill="#fff"/><path d="M336.21,45.252a3.077,3.077,0,0,1-3.037-1.183c-.351-.523.477-1.04.826-.519a2.154,2.154,0,0,0,2.168.726c.626-.06.666.916.043.976" transform="translate(179.441 23.344)" fill="#892a37"/><path d="M328.981,35.4c-.182.8.908,1.723,2.436,2.073s2.911-.012,3.093-.808-.908-1.723-2.434-2.073-2.913.012-3.094.808" transform="translate(177.218 18.564)" fill="#892a37"/><path d="M339.139,38.283c-.183.8.908,1.725,2.433,2.074a4.532,4.532,0,0,0,1.95.049q.2-1.016.385-2.111c.006-.029.009-.06.015-.086a4.7,4.7,0,0,0-1.691-.732c-1.523-.348-2.91.012-3.091.806" transform="translate(182.69 20.117)" fill="#892a37"/><path d="M336.469,31.765a2.285,2.285,0,0,0-3.213.3c-.7,1.029-2.427.117-1.72-.926a4.191,4.191,0,0,1,5.859-1.092c1.034.691.12,2.42-.926,1.719" transform="translate(178.516 15.785)" fill="#192827"/><path d="M342.839,35.026c-.525-1.071-1.143-2.584-2.545-2.562a.977.977,0,0,1-.086-1.951c2.231-.035,3.4,1.668,4.285,3.474.548,1.12-1.1,2.168-1.654,1.039" transform="translate(182.792 16.437)" fill="#192827"/><path d="M330.225,40.634a6.825,6.825,0,0,0,.5-5.938c-.936-2.537-2.824-6.544-5.462-6.781-3.881-.348-5.1,2.893-5.518,6.383s.788,8.468,5.647,8.834a4.943,4.943,0,0,0,4.832-2.5" transform="translate(172.212 15.024)" fill="#d24f55"/><path d="M324.234,37.93a8.713,8.713,0,0,0,.82-4.225c-.157-1.306-1.045-3.368-2.694-3.259-.552.037-.706-.819-.148-.856a3.526,3.526,0,0,1,3.328,2.52c.814,2.025.282,4.187-.5,6.13a.434.434,0,0,1-.811-.311" transform="translate(173.394 15.937)" fill="#192827"/><path d="M373.917,139.847a32.986,32.986,0,0,0,39.731,9.1l0,0c.409-.189.817-.392,1.219-.6l0,0a33.069,33.069,0,0,0,16.141-19.263c.138-.443.271-.886.388-1.336a33.066,33.066,0,0,0,.272-16.2c-.066-.274-.132-.545-.2-.817A33.135,33.135,0,0,0,419.3,92.686c-.254-.189-.509-.375-.766-.554a32.874,32.874,0,0,0-13.324-5.5c-.315-.057-.632-.1-.952-.151a32.963,32.963,0,0,0-17.594,2.282c-.323.138-.645.282-.966.432a33.024,33.024,0,0,0-18.735,24.995c-.048.3-.089.611-.126.92a32.88,32.88,0,0,0,4.153,20.474q.238.422.5.832a33.2,33.2,0,0,0,2.431,3.431" transform="translate(197.49 46.406)" fill="#f27521"/><path d="M379.009,88.276c4.164,2.047,8.292,4.168,12.316,6.483.9.522,1.8,1.048,2.7,1.59q.372.226.745.457a100.97,100.97,0,0,1,12.161,8.685c.214.175.425.357.634.539a70.233,70.233,0,0,1,8.348,8.417c.183.218.366.44.546.662a57.644,57.644,0,0,1,4.119,5.772,49.817,49.817,0,0,1,3.748,7.281c.138-.443.271-.886.388-1.336a52.583,52.583,0,0,0-7.592-12.33q-.268-.332-.545-.662a70.206,70.206,0,0,0-8.609-8.538c-.212-.182-.428-.359-.642-.537a107.048,107.048,0,0,0-12.011-8.494c-.243-.149-.485-.3-.731-.446-4.761-2.9-9.7-5.522-14.606-7.974-.323.138-.646.282-.966.432" transform="translate(204.18 47.323)" fill="#192827"/><path d="M366.751,114.99c3.9-1.24,7.766-2.571,11.567-4.084a98.562,98.562,0,0,0,13.467-6.478,49.937,49.937,0,0,0,9.586-6.824c.186-.18.366-.359.545-.542.128-.134.255-.268.382-.4,2.417-2.6,4.011-5.984,3.01-9.563-.055-.2-.117-.391-.182-.585-.315-.057-.632-.1-.952-.151a7.821,7.821,0,0,1,.571,3.8,10.884,10.884,0,0,1-3.559,6.455c-.183.18-.371.357-.559.531-.7.646-1.429,1.242-2.145,1.791a73.52,73.52,0,0,1-11.63,7.22,135.676,135.676,0,0,1-19.974,7.912c-.049.3-.089.611-.126.92" transform="translate(197.576 46.524)" fill="#192827"/><path d="M369.946,134.318q1.856-.489,3.694-1.04c11.9-3.573,23.3-9.349,31.833-18.537a51.531,51.531,0,0,0,7.238-9.892c.138-.242.271-.488.4-.734a42.839,42.839,0,0,0,4.648-13.525c-.257-.189-.509-.375-.768-.554a41.143,41.143,0,0,1-3.867,12.267c-.214.429-.431.856-.655,1.274q-.194.372-.4.734c-8.909,16.121-25.3,24.532-42.627,29.176q.238.422.5.832" transform="translate(199.03 48.503)" fill="#192827"/><path d="M397.174,140.339c.409-.189.817-.392,1.219-.6l0,0a32.674,32.674,0,0,0,1.776-7.912c.488-5.124-.26-10.413,1.132-15.43a19.931,19.931,0,0,1,5.366-8.972c.214-.209.439-.412.665-.612a18.324,18.324,0,0,1,3.291-2.31,14.207,14.207,0,0,1,4.571-1.562q-.1-.411-.2-.817a14.913,14.913,0,0,0-3.658,1.088,17.848,17.848,0,0,0-4.548,2.939c-.226.2-.446.4-.663.612a21.147,21.147,0,0,0-4.515,6.352c-2.233,4.839-1.966,10.108-2.1,15.3a35.748,35.748,0,0,1-2.337,11.927" transform="translate(213.966 55.012)" fill="#192827"/><path d="M402.17,94.647s-5.615,8.134-4.7,10.519,7.749-5.019,7.749-5.019-3.193,4.889-2.784,6.872,6.089-3.036,6.089-3.036-2,3.353-.252,4.592,3.176.375,4.753-1.2a5.918,5.918,0,0,0,1.677-5.021c-.282-1.174-2.528-1.69-2.528-1.69s.366-4.125-.772-4.981a3.082,3.082,0,0,0-2.48-.483,3.254,3.254,0,0,0-.446-3.067,2.857,2.857,0,0,0-2.43-1.257,38.937,38.937,0,0,0-3.251-4.285c-1.326-1.365-4.273.655-6.287,1.739s-.417,6.23-1.5,9.388c0,0,0,1.948,1.991,1.076s2.382-5.092,2.876-5.761,2.3,1.614,2.3,1.614" transform="translate(212.797 46.402)" fill="#d24f55"/><path d="M56.088,304.651,45.15,325.81l-12.51-6.1,8.252-21.521Z" transform="translate(17.584 160.638)" fill="#f27521"/><path d="M0,318.555l57.819,25.892a29.229,29.229,0,0,0,1.336-2.651c.182-.4.329-.814.519-1.217,3.7-7.857,10.968-24.512,6.249-23.693-6.367,4.705-14.492-2.11-14.492-2.11s-2.383-10.185-7.343-9.642-2.428,6.927-9.234,8.578c-5.213,1.257-9.292-2.636-15.509-4.1a19.278,19.278,0,0,0-6.376-.446,15.167,15.167,0,0,0-10.823,5.655A13.814,13.814,0,0,0,0,318.555" transform="translate(0 164.37)" fill="#0e4284"/><path d="M47.926,319.5a13.721,13.721,0,0,0-16.137,5.466c-.494.748-1.573-.14-1.08-.885a15.106,15.106,0,0,1,17.783-5.858c.846.3.277,1.576-.566,1.277" transform="translate(16.476 170.946)" fill="#0e77c0"/><path d="M0,315.753s1.46-5.107,3.718-5.427,7.787,6.229,9.426,7.235,1.628-2.365,6.575-1.045c2.525.674,11.787,10.072,14.439,10.931s12.3-2.964,20-.385,6.255,9.12,6.255,9.12a8.452,8.452,0,0,1-2.6,5.462Z" transform="translate(0 167.172)" fill="#fff"/><path d="M23.753,309.773a.835.835,0,0,0,.254.029,9.653,9.653,0,0,1,2.974,3.8c.325.731-.836,1.169-1.16.442a8.343,8.343,0,0,0-2.553-3.265.568.568,0,0,1,.463-1.012l.022.006" transform="translate(12.411 166.865)" fill="#fff"/><path d="M22.1,309.906a.834.834,0,0,0,.254.029,9.654,9.654,0,0,1,2.974,3.8c.325.731-.836,1.171-1.159.443a8.366,8.366,0,0,0-2.554-3.267.568.568,0,0,1,.463-1.012l.022.006" transform="translate(11.52 166.937)" fill="#fff"/><path d="M20.01,309.878a.832.832,0,0,0,.254.029,9.654,9.654,0,0,1,2.974,3.8c.325.731-.836,1.171-1.16.442a8.357,8.357,0,0,0-2.553-3.265.568.568,0,0,1,.463-1.012l.022.006" transform="translate(10.395 166.922)" fill="#fff"/><path d="M17.74,309.28a.837.837,0,0,0,.254.029,9.655,9.655,0,0,1,2.974,3.8c.325.731-.836,1.171-1.159.442a8.36,8.36,0,0,0-2.554-3.265.568.568,0,0,1,.463-1.013l.022.006" transform="translate(9.172 166.6)" fill="#fff"/><path d="M80.755,155.842s-10.577,49.293,14.553,96.627c27.3,51.412,178.1-21.031,178.1-21.031l-3.284-19.294s-30.177,5.293-62.47,8.3c-24.226,2.254-48.428,10.826-48.428,10.826L136.516,175.98s-32.644-35.006-55.762-20.139" transform="translate(42.314 81.973)" fill="#192827"/><path d="M197.584,192.847a161.424,161.424,0,0,0,3.979,20.414.648.648,0,0,0,1.248-.345,161.385,161.385,0,0,1-3.979-20.414c-.115-.822-1.363-.472-1.248.345" transform="translate(106.438 103.451)" fill="#47574a"/><path d="M131.231,204.506a32.747,32.747,0,0,0-2.006,9.408c-.054.831,1.24.828,1.294,0a31.593,31.593,0,0,1,1.96-9.063c.292-.782-.959-1.119-1.248-.345" transform="translate(69.615 109.935)" fill="#47574a"/><path d="M89.1,118.91l2.351,14.638s5.509,4.448,22.407,1.774c20.266-3.207,31.173-13.3,31.173-13.3l-3.724-14.338Z" transform="translate(48 58.01)" fill="#f27521"/><path d="M134.9,84.954s-39.339,40.61-59,45.315S23.668,66.817,23.668,66.817l6.073-5.812S70.8,100.619,76.615,102.429c5.713,1.779,35.641-36.989,35.641-36.989s19.366,3.314,22.645,19.514" transform="translate(12.75 32.864)" fill="#f27521"/><path d="M58.421,88.994a15.851,15.851,0,0,1,3.824,6.475.648.648,0,0,0,1.249-.343,17.194,17.194,0,0,0-4.158-7.047.648.648,0,0,0-.916.916" transform="translate(31.371 47.345)" fill="#c74d21"/><path d="M41.265,71.931s1.634-5.421-.308-9.925-2.485-8.6-4.124-11.848-2.362,1.5-2.293,4.156.126,5.669-1.626,5.244S19.063,47.494,16.6,47.217s-.976,2.262-.976,2.262-2.728-2.588-4.178-1.762-.122,3.005-.122,3.005-1.879-1.67-2.65-.108,8.506,12.91,7.771,13.588-3.956-7.24-5.929-6.61,1.222,4.827,3.376,8.455A19,19,0,0,0,22.942,74.2c3.661,1.386,9.322,5.864,12.793,3.171a32.094,32.094,0,0,0,5.53-5.441" transform="translate(4.647 25.425)" fill="#f27521"/><path d="M10.7,49.228q4.831,4.646,9.36,9.6c.357.389-.306.872-.659.488q-4.452-4.868-9.215-9.448c-.377-.363.134-1,.514-.639" transform="translate(5.415 26.461)" fill="#c74d21"/><path d="M13.559,48.715a44.949,44.949,0,0,1,7.149,7.17c.329.414-.331.9-.659.488a43.991,43.991,0,0,0-7-7.02.41.41,0,0,1,.514-.639" transform="translate(6.946 26.194)" fill="#c74d21"/><path d="M14.886,59.973a21.364,21.364,0,0,1,6.784-7.421c.437-.294.925.365.486.659a20.5,20.5,0,0,0-6.523,7.1c-.254.459-1,.129-.748-.334" transform="translate(7.991 28.27)" fill="#c74d21"/><path d="M19.644,56.206a11.9,11.9,0,0,1,9.042,10.266.41.41,0,0,1-.814.089,11.069,11.069,0,0,0-8.358-9.546c-.506-.129-.382-.94.131-.809" transform="translate(10.338 30.271)" fill="#c74d21"/><path d="M96.374,128.527s-17.255,33.418-16.381,46.257,38.273,14.33,62.732,12.634c16.532-1.146,33.261-18.04,28.529-37.976S149.954,117,149.954,117Z" transform="translate(43.077 63.029)" fill="#192827"/><path d="M196.242,141.467s5.224,4.916-16.347,49.347c-21.254,43.774-66.948,94.7-74.786,108.167,5.619,21.128-36.732,69.9-52.67,99.674L34.924,392.2s25.04-89.33,34.612-110.645,62.49-129.806,62.49-129.806Z" transform="translate(18.814 76.21)" fill="#192827"/><path d="M154.432,210.081C134.293,237.463,95.346,286.86,92.78,290.11c.022,1.877-.031,15.407-5.752,25.754-5.49,9.934-35.2,61.62-40.91,71.561-.274.475-.492.854-.652,1.129-.365-.149-.731-.3-1.1-.448.143-.255.362-.635.651-1.134C50.53,377.38,80.487,325.265,86,315.291c5.97-10.8,5.606-25.218,5.6-25.361a.613.613,0,0,1,.128-.385c.406-.517,41.044-52,61.757-80.161,15.278-20.77,20.842-45.849,22.713-57.605.375.148.748.292,1.125.434-1.936,11.984-7.589,37.069-22.888,57.868" transform="translate(23.901 81.766)" fill="#fff"/><path d="M150.152,208.708c-20.139,27.378-59.085,76.779-61.652,80.029.022,1.876-.029,15.407-5.749,25.75-5.472,9.9-34.97,61.224-40.848,71.444-.265.463-.483.842-.649,1.131-.368-.145-.74-.292-1.108-.44.155-.274.377-.651.654-1.134,5.675-9.866,35.426-61.633,40.919-71.57,5.973-10.8,5.606-25.221,5.6-25.364a.571.571,0,0,1,.126-.382c.408-.517,41.042-52,61.755-80.164,15.589-21.187,21.067-46.866,22.824-58.3.36.228.726.439,1.091.651-1.859,11.777-7.454,37.266-22.965,58.351" transform="translate(21.627 80.649)" fill="#fff"/><path d="M54,308.316c-.135.409-.317.8-.482,1.2-1.137-.486-2.28-.959-3.427-1.426-.366-.149-.731-.3-1.1-.448-1.791-.729-3.588-1.442-5.387-2.16-.368-.145-.74-.292-1.109-.44-2.239-.894-4.479-1.794-6.7-2.725.185-.391.366-.78.529-1.18,2.267.949,4.547,1.862,6.83,2.771.365.148.734.3,1.1.443q2.7,1.069,5.389,2.157c.366.148.736.3,1.1.451q1.632.665,3.257,1.356" transform="translate(19.28 162.228)" fill="#47574a"/><path d="M134.656,186.942A411.186,411.186,0,0,1,96.6,240.848c-.534.642.486,1.439,1.02.8a413.31,413.31,0,0,0,38.222-54.191c.425-.717-.769-1.222-1.188-.514" transform="translate(51.96 100.525)" fill="#47574a"/><path d="M85.692,195.046c8.175-19.019,18.1-37.206,28.442-55.122.417-.722-.779-1.222-1.191-.508-10.337,17.915-20.266,36.1-28.442,55.122a.648.648,0,0,0,1.191.508" transform="translate(45.492 74.919)" fill="#47574a"/><path d="M96.831,146.19q.351,2.777.7,5.555a.648.648,0,0,0,1.285-.162q-.351-2.777-.7-5.555a.648.648,0,0,0-1.285.162" transform="translate(52.162 78.373)" fill="#47574a"/><path d="M117.868,126.63a36.759,36.759,0,0,0,28.262,42.252c.554.123.791-.729.234-.852a35.861,35.861,0,0,1-27.643-41.164c.1-.557-.756-.8-.852-.235" transform="translate(63.201 68.045)" fill="#47574a"/><path d="M97.014,56.866a24.475,24.475,0,0,1,21.348-3.139c7.284,2.348,16.514,5.093,22.078,5.886,10.257,1.463,14.51,12.878,13.281,31.047s-3.11,51.649-3.11,51.649-27.822,16.931-55.466,14.8l-3.691-19.471A26.181,26.181,0,0,1,77.1,127.159c-5.615-8.431,6.13-21.376.585-32.236s-.739-17.508,2.72-23.938c1.9-3.522,9.825-9.463,16.614-14.119" transform="translate(40.486 28.311)" fill="#77ba40"/><path d="M80.582,87.944s-2.539,5.333.245,12.953A175.545,175.545,0,0,1,113.31,92.92s1.123-8.458-.546-13.391a209.658,209.658,0,0,0-32.182,8.415" transform="translate(42.84 42.843)" fill="#9adb40"/><path d="M119.189,87.932a129.111,129.111,0,0,1-.677,38.68c-.1.589.823.688.922.1a129.956,129.956,0,0,0,.668-38.93c-.077-.591-.992-.443-.912.148" transform="translate(63.841 47.088)" fill="#457f2a"/><path d="M82.645,77.064a5.187,5.187,0,0,0,3.711,5.13c2.947,1.023,6.158-.355,8.8-1.6a84.584,84.584,0,0,0,17.965-11.984.463.463,0,0,0-.588-.716A90.969,90.969,0,0,1,98.254,77.965a29.057,29.057,0,0,1-8.021,3.458c-2.851.566-6.921-.666-6.666-4.258.042-.594-.88-.7-.922-.1" transform="translate(44.516 36.514)" fill="#457f2a"/><path d="M86.7,112.789c14.524-5.752,31.49-3.822,44.88-12.658.5-.328-.1-1.042-.589-.715-13.271,8.757-30.259,6.821-44.675,12.53-.554.22-.169,1.063.385.843" transform="translate(46.356 53.512)" fill="#457f2a"/><path d="M83.515,20.966S88.954-5.315,110.035.972s12.04,49.157,32.079,46.808c0,0-18.909,17.521-31.656.711s-8.423-22.705-26.943-27.525" transform="translate(44.991 -0.001)" fill="#192827"/><path d="M115.1,68.772s-1.022-9.351,7.575-20.226,2.11-30.49-13.719-34.874c-4.061-1.125-7.452-.414-9.708-1.38-14.5-6.2-25.31,6.467-29.594,14.561-5.058,9.559,2.38,14.936,6.083,21.159S115.1,68.772,115.1,68.772" transform="translate(36.607 5.731)" fill="#192827"/><path d="M85.5,11.9c6.692-1.565,13.511-.666,18.608,4.238.8.769,2.023-.449,1.22-1.222C99.781,9.583,92.349,8.53,85.041,10.238c-1.082.254-.625,1.917.459,1.665" transform="translate(45.481 5.109)" fill="#fff"/><path d="M112.687,67.419c-2.765,7.178-22.45,28.422-26.1,6l-.246-8.009-.269-8.741-.189-6.118,15.76-14.079Z" transform="translate(46.264 19.649)" fill="#f27521"/><path d="M99.689,43.293c-4.528,16.17-10.8,22.879-13.278,23.055L86,53Z" transform="translate(46.33 23.322)" fill="#192827"/><path d="M113.963,41.257c-.443,6.24-1.693,8.532-4.8,15.172a22.52,22.52,0,0,1-12.2,10.93c-12.117,3.631-18.923-.131-20.994-17.18-1.283-10.586-5.4-15.764-3.621-20.342h0q.208-.335.419-.655A23.931,23.931,0,0,1,87.536,19.136C117.43,12.408,114.6,32.3,113.963,41.257" transform="translate(38.739 9.574)" fill="#f27521"/><path d="M81.491,41.411l-.009,0a2.116,2.116,0,0,1-1.051-4.1L80.7,35.4a.425.425,0,1,1,.842.122l-.311,2.16a.424.424,0,0,1-.289.343c-.058.02-1.449.494-1.2,1.623.232,1.048,1.59.925,1.648.919a.425.425,0,0,1,.1.845" transform="translate(42.486 18.873)" fill="#192827"/><path d="M74.111,25.08s-6.489,7.9-3.022,9.114S83.609,18.444,98.62,31.63c3.738,3.285,2.35,8.5,10.212,8.468s9.14-1.216,9.034-8.051S106.67,12.832,91.2,16.255,74.111,25.08,74.111,25.08" transform="translate(37.748 8.44)" fill="#192827"/><path d="M92.345,13.785c-4.756,2.653-9.278,6.084-11.679,11.106-.239.5-.957.028-.722-.465,2.46-5.147,7.13-8.685,12-11.4.485-.269.88.492.4.76" transform="translate(43.042 6.985)" fill="#47574a"/><path d="M78.949,23.158s5.007,14.616,20.888,11.283S97.926,12.306,78.949,23.158" transform="translate(42.531 10.677)" fill="#192827"/><path d="M96.852,21.684c-1.713.639-4.741,2.54-5.861,4.228.779,4.542.345,17.138,5.641,17.114,7.861-.037,9.042,5.261,9.709-8.251.254-5.125-1.6-11.508-4.759-14.658-1.585.465-3.157.98-4.73,1.566" transform="translate(49.019 10.837)" fill="#192827"/><path d="M85.881,33.81a2.517,2.517,0,0,0-2.314,1.862.638.638,0,0,1-1.219-.374,3.815,3.815,0,0,1,3.57-2.762c.822-.029.779,1.245-.037,1.274" transform="translate(44.348 17.527)" fill="#192827"/><path d="M79.63,36.859a2.687,2.687,0,0,0-3.01-.459c-.748.326-1.349-.8-.6-1.126A4.036,4.036,0,0,1,80.569,36c.614.542-.328,1.4-.939.863" transform="translate(40.769 18.788)" fill="#192827"/><path d="M82.166,46.906a3.445,3.445,0,0,0,3.447-1.182c.415-.568-.486-1.183-.9-.617a2.409,2.409,0,0,1-2.454.711c-.7-.1-.786.992-.092,1.088" transform="translate(44.007 24.179)" fill="#c74d21"/><path d="M91.667,36.616c.168.9-1.092,1.883-2.814,2.2s-3.25-.148-3.417-1.045,1.094-1.883,2.814-2.2,3.251.148,3.418,1.045" transform="translate(46.018 19.108)" fill="#c74d21"/><path d="M79.876,39.366c.166.9-1.1,1.885-2.813,2.2a5.05,5.05,0,0,1-2.179-.034c-.12-.763-.232-1.554-.332-2.374-.006-.034-.009-.068-.014-.1a5.267,5.267,0,0,1,1.92-.74c1.719-.319,3.25.146,3.418,1.042" transform="translate(40.155 20.591)" fill="#c74d21"/><path d="M83.76,31.735c1.131-.691,2.791-.785,3.574.482.731,1.182,2.7.242,1.962-.956A4.681,4.681,0,0,0,82.8,29.774c-1.185.725-.245,2.7.956,1.962" transform="translate(44.314 15.649)" fill="#192827"/><path d="M76.18,35.9c.635-1.171,1.4-2.833,2.959-2.744a1.093,1.093,0,0,0,.186-2.176c-2.49-.142-3.873,1.708-4.944,3.685-.663,1.223,1.129,2.47,1.8,1.234" transform="translate(39.993 16.685)" fill="#192827"/><path d="M78.365,42.708s4.219-.045,11.126-3.3c0,0,.665,6.861-4.822,7.849-4.655.839-6.3-4.547-6.3-4.547" transform="translate(42.217 21.228)" fill="#fff"/><path d="M92.48,42.449a7.627,7.627,0,0,1-.288-6.653c1.162-2.79,3.451-7.177,6.41-7.32,4.348-.211,5.561,3.462,5.869,7.38s-1.269,9.419-6.712,9.6a5.524,5.524,0,0,1-5.279-3.01" transform="translate(49.329 15.335)" fill="#f27521"/><path d="M95.9,40.981a4.129,4.129,0,1,0,3.162-4.909A4.127,4.127,0,0,0,95.9,40.981" transform="translate(51.615 19.381)" fill="#fff"/><path d="M96.316,39.632a9.728,9.728,0,0,1-.722-4.756c.235-1.449,1.32-3.711,3.157-3.514.615.068.825-.882.2-.948a3.943,3.943,0,0,0-3.833,2.66c-1,2.225-.506,4.662.272,6.869a.486.486,0,0,0,.92-.311" transform="translate(50.943 16.374)" fill="#192827"/><path d="M84.293,27.681a37.57,37.57,0,0,0,6.873,6.66c4.745,3.8,4.692,7.737,3.961,12.724s7.8,6.761,7.8,6.761S97.808,48.294,98.8,41.742,96.878,27.178,93.19,26.962a47.13,47.13,0,0,0-8.9.719" transform="translate(45.41 14.507)" fill="#192827"/><path d="M114.627,63.956a14.345,14.345,0,0,1,22.278-.7c11.425,13.162,32.035,38.49,34.69,52.752,3.7,19.871-66.025,48.944-66.025,48.944l-5.495-6.363S142.5,120.316,144.6,114.6c1.463-3.975-17.123-21.448-28.114-31.327A14.273,14.273,0,0,1,114.4,64.261c.075-.1.151-.2.228-.3" transform="translate(53.912 31.402)" fill="#f27521"/><path d="M129.928,95.313a25.333,25.333,0,0,1,8.988,1.794c.776.306,1.112-.946.345-1.248a26.285,26.285,0,0,0-9.332-1.84.647.647,0,0,0,0,1.294" transform="translate(69.658 50.649)" fill="#c74d21"/><path d="M114.469,121.775a7.564,7.564,0,0,1,1.9,10.306,18.572,18.572,0,0,0-2.574,5.749c-.872,4.435-.672,9.917-1.746,12.033-1.586,3.122-2.89-.422-2.99-.885a52.366,52.366,0,0,1-.834-7.189s-1.542,7.524-.932,10.488-1.12,5.07-3.27,2.628-2.176-11.085-1.536-13.481c0,0-2.15,4.395-1.457,8.437s.4,5.581-.174,7.14-3.573.1-4.395-5.564a18.112,18.112,0,0,1,1.222-10.674,30.393,30.393,0,0,0-3.3,4.952c-1.8,3.253-.629,7.86-2.451,9.137-1.863,1.3-2.98-4.061-2.273-7.3s.949-5.647,3.357-9.129a53.408,53.408,0,0,1,6.772-8.461c1.943-1.739,8.038-8.826,11.78-9.149a4.641,4.641,0,0,1,2.9.959" transform="translate(48.185 65.08)" fill="#f27521"/><path d="M104.227,123.548s-7.377,2.991-9.026,5.112-5.27,4.442-3.941,5.669,5.7-1.75,5.7-1.75Z" transform="translate(49.009 66.557)" fill="#f27521"/><path d="M229.966,333.063a12.277,12.277,0,1,1-12.276-12.276,12.276,12.276,0,0,1,12.276,12.276" transform="translate(110.66 172.814)" fill="#0e77c0"/><path d="M227.763,333.063a12.277,12.277,0,1,1-12.276-12.276,12.276,12.276,0,0,1,12.276,12.276" transform="translate(109.473 172.814)" fill="#0e4284"/><path d="M217.919,330.51a4.985,4.985,0,1,1-4.985-4.986,4.986,4.986,0,0,1,4.985,4.986" transform="translate(112.026 175.366)" fill="#0e77c0"/><path d="M247.289,326.456a12.277,12.277,0,1,1-12.276-12.276,12.276,12.276,0,0,1,12.276,12.276" transform="translate(119.992 169.254)" fill="#0e77c0"/><path d="M245.086,326.456A12.277,12.277,0,1,1,232.81,314.18a12.276,12.276,0,0,1,12.276,12.276" transform="translate(118.806 169.254)" fill="#0e77c0"/><path d="M171.855,329.7a12.277,12.277,0,1,1-12.276-12.276A12.276,12.276,0,0,1,171.855,329.7" transform="translate(79.355 171)" fill="#0e77c0"/><path d="M169.652,329.7a12.277,12.277,0,1,1-12.276-12.276A12.276,12.276,0,0,1,169.652,329.7" transform="translate(78.168 171)" fill="#0e4284"/><path d="M159.808,327.143a4.985,4.985,0,1,1-4.985-4.985,4.985,4.985,0,0,1,4.985,4.985" transform="translate(80.72 173.552)" fill="#0e77c0"/><path d="M190.279,324.625A12.277,12.277,0,1,1,178,312.349a12.276,12.276,0,0,1,12.276,12.276" transform="translate(89.28 168.268)" fill="#0e77c0"/><path d="M188.076,324.625A12.277,12.277,0,1,1,175.8,312.349a12.276,12.276,0,0,1,12.276,12.276" transform="translate(88.093 168.268)" fill="#0e77c0"/><path d="M197.137,310.271c-8.155-.428-17.317-1.931-25.377-2.964-21.224-2.72-37.265-4.57-38.848,3.845-1.942,10.319,5.495,21.516,90.917,23.912,51.627,1.448,103.385,1.133,102.49-23.9-.251-7.033-43.746-.169-68.088.052-33.436.3-45.055-.1-61.093-.943" transform="translate(71.468 164.32)" fill="#47574a"/><path d="M197.053,307.7c-8.155-.428-17.317-1.931-25.377-2.964-21.224-2.72-35.02-2.7-38.37,5.409-2.964,7.173,5.205,19.1,90.626,21.494,51.627,1.449,100.261-1.1,102.4-20.094.788-7.01-43.84-3.124-68.182-2.9-33.436.3-45.055-.1-61.093-.943" transform="translate(71.552 163.293)" fill="#192827"/><path d="M168.66,284.691l13.37,21.764h15.546l-6.841-25.184Z" transform="translate(90.861 151.525)" fill="#f27521"/><path d="M186.383,295.718a3.5,3.5,0,0,0-6.136,2.225v.108c0,4.6,2.219,7.772-3.079,10.231-2.13.989-9.171,3.659-13.325,4.239-5.766.8-5.9,5.356-2.877,10.334l.165.272,26.826-.045,20.842-.035a19.315,19.315,0,0,0-.939-9.509c-1.537-3.616-3.659-20.656-6.624-21.437-1.179-.309-.138,5.3-2.448,6.036-2.21.706-9.388,1.262-11.1-.854-.5-.611-.92-1.128-1.3-1.565" transform="translate(85.662 157.353)" fill="#192827"/><path d="M159.487,313.062s1.009-2.442,4.824-1.7a37.116,37.116,0,0,1,6.946,2.106h27.957s3.7-8.6,8.284-7.583c0,0,2.288,3.6,1.043,9.775H160.873a3.824,3.824,0,0,1-1.386-2.6" transform="translate(85.919 164.74)" fill="#fff"/><path d="M173.306,300.534a8.347,8.347,0,0,1,5.661,2.094c.494.432,1.222-.289.725-.725a9.455,9.455,0,0,0-6.386-2.394.513.513,0,0,0,0,1.025" transform="translate(93.097 161.351)" fill="#fff"/><path d="M171.941,302.251a8.347,8.347,0,0,1,5.661,2.094c.494.432,1.222-.289.725-.725a9.454,9.454,0,0,0-6.386-2.394.513.513,0,0,0,0,1.025" transform="translate(92.361 162.276)" fill="#fff"/><path d="M170.194,303.557a8.347,8.347,0,0,1,5.661,2.094c.494.432,1.222-.289.725-.725a9.455,9.455,0,0,0-6.386-2.394.513.513,0,0,0,0,1.025" transform="translate(91.42 162.979)" fill="#fff"/><path d="M193.186,87.644s-11.2,47.968-14.856,55.28-42.018,38.617-42.018,38.617l10.479,8.6s28.552-10,44.337-20.828,25.974-62.78,25.974-62.78Z" transform="translate(73.434 47.215)" fill="#f27521"/><path d="M163.869,124.7a29.042,29.042,0,0,1,12.279,3.3c.522.274.985-.515.462-.789a30.114,30.114,0,0,0-12.741-3.43c-.589-.026-.588.889,0,.916" transform="translate(88.041 66.682)" fill="#c74d21"/><path d="M165.759,125.594a16.634,16.634,0,0,1,6.564-2.811c.577-.12.332-1-.243-.883a17.232,17.232,0,0,0-6.783,2.9c-.472.343-.017,1.137.462.791" transform="translate(88.942 65.663)" fill="#c74d21"/><path d="M128.3,161.835s2.879,6.347,2.794,9.306-5.335,0-6.286-2.64,3.491-6.666,3.491-6.666" transform="translate(67.168 87.183)" fill="#f27521"/><path d="M139.183,157.149s-10.343,8.092-11.059,10.516c-1,3.4-1.451,9.949-4.064,9.8-3.738-.219-1.966-10.516-1.966-10.516s11.936-11.637,17.089-9.8" transform="translate(65.549 84.552)" fill="#f27521"/><path d="M158.411,154.583a13.328,13.328,0,0,1-2.14,8.963c-2.98,4.776-8.189,7.784-11.174,8.982-7.232,2.9-5.676-1.945-1.508-5.595,4.258-3.73,3.664-3.956.4-4.278s-12.354,3.811-14.364,6.361-7.174,8.877-10.95,9.962,2.373-6.973,4.755-12.918,24.546-17.938,24.546-17.938Z" transform="translate(63.287 79.795)" fill="#f27521"/><path d="M182.625,66.083S170.993,104.166,165.2,116.01c0,0,8.685,15.8,32.986,13.975,0,0-6.09-56.5-15.564-63.9" transform="translate(88.999 35.599)" fill="#0e4284"/><path d="M167.038,95.422a33.891,33.891,0,0,0,26.22,14.676c.589.028.588-.888,0-.916A32.913,32.913,0,0,1,167.829,94.96c-.331-.485-1.123-.028-.791.462" transform="translate(89.944 51.045)" fill="#0e77c0"/><path d="M201.885,145.845s-35.964,36.021-63.432,84.091c-11.66,20.4,47.3,137.28,47.3,137.28s1.554.932,25.455-8.548c-13.788-78.008-22.727-113.074-22.727-119.575,0-8.766,49.441-61.032,58.016-72.208s-30.722-29.537-44.615-21.04" transform="translate(73.765 77.396)" fill="#77ba40"/><path d="M188.785,150.407a30.3,30.3,0,0,1-24.613,19.9c-.579.071-.585.986,0,.917a31.254,31.254,0,0,0,25.5-20.57c.192-.559-.692-.8-.883-.243" transform="translate(88.208 80.857)" fill="#457f2a"/><path d="M137.611,205.936A29.041,29.041,0,0,0,163.2,209.5c.555-.188.317-1.072-.243-.883a28.167,28.167,0,0,1-24.884-3.471c-.486-.335-.945.459-.462.791" transform="translate(74.023 110.472)" fill="#457f2a"/><path d="M191.3,186.241c-5.6,5.818-11.657,11.163-17.1,17.131a60.965,60.965,0,0,0-7.267,9.28,21.992,21.992,0,0,0-2.954,10.02,44.582,44.582,0,0,0,1.288,14.81q2.361,9.135,4.722,18.268l9.523,36.832q5.371,20.773,10.74,41.545a.458.458,0,0,0,.883-.243q-9.292-35.948-18.588-71.9-2.285-8.84-4.57-17.678c-1.4-5.426-3.013-10.734-3.2-16.372-.14-4.255-.018-8.983,1.88-12.884a43.087,43.087,0,0,1,6.533-9.177c5.855-6.724,12.588-12.574,18.76-18.989.408-.425-.238-1.074-.648-.648" transform="translate(88.26 100.256)" fill="#457f2a"/><path d="M165.831,289.013l4.353,7.774,27.049-9.328-1.865-9.017Z" transform="translate(89.337 150.002)" fill="#9adb40"/><path d="M211.093,287.1l7.461,20.52,16.169-2.8L232.857,284.3Z" transform="translate(113.72 153.158)" fill="#f27521"/><path d="M217.655,302.056s.812-7.183,6.838-7.957,8.2,5.763,8.2,5.763l.048-4.453a34.54,34.54,0,0,1,1.617,9.715c0,4.942,9.035,3.921,11.422,18.409H214.929s-2.439-20.6-.971-24.035,3.7,2.557,3.7,2.557" transform="translate(115.01 158.402)" fill="#192827"/><path d="M213.828,307.09a3.858,3.858,0,0,1,3.984,1.1c1.813,1.9,2.9,5.8,2.9,5.8h9.969s4.35-4.721,7.7-4.264,6.443,3.316,6.443,3.316a4.853,4.853,0,0,1,.794,3.545H214.766a40.488,40.488,0,0,1-.939-9.5" transform="translate(115.172 165.345)" fill="#fff"/><path d="M229.521,301.725c-2.842-1-5.739-.965-8.026,1.186-.511.482.26,1.249.769.769,2.014-1.9,4.5-1.779,6.967-.906.662.232.946-.817.289-1.049" transform="translate(119.233 162.202)" fill="#fff"/><path d="M230.62,303.263c-2.842-1-5.739-.965-8.026,1.186-.511.482.26,1.249.769.769,2.014-1.9,4.5-1.779,6.967-.908.662.234.946-.815.289-1.048" transform="translate(119.825 163.03)" fill="#fff"/><path d="M231.957,304.941c-2.842-1-5.739-.965-8.026,1.186-.511.482.26,1.249.769.769,2.014-1.9,4.5-1.779,6.967-.908.662.234.946-.816.289-1.048" transform="translate(120.546 163.934)" fill="#fff"/><path d="M219.262,154.913s-43.058,68.178-45.632,85.851c-1.423,9.775,54.321,126.612,54.321,126.612s7.363,5.122,29.774-6.083c-7.044-54.737-17.935-105.133-26.869-127.723,0,0,39.219-35.284,48.588-61.607,18-50.578-46.314-25.6-60.182-17.051" transform="translate(93.523 76.051)" fill="#77ba40"/><path d="M228.719,155.256a19.246,19.246,0,0,0,4.79,26.463c.48.343.939-.451.463-.791a18.321,18.321,0,0,1-4.462-25.21c.331-.489-.462-.948-.791-.462" transform="translate(121.434 83.527)" fill="#457f2a"/><path d="M204.642,153.692c-3.756,4.99-7.6,9.923-11.27,14.981-1.216,1.677-2.447,3.778-1.8,5.923a3.516,3.516,0,0,0,3.619,2.69c.58-.062.586-.977,0-.916a2.637,2.637,0,0,1-2.736-2.017,4.857,4.857,0,0,1,.712-3.708,47.3,47.3,0,0,1,3.8-5.241l8.468-11.25c.354-.471-.44-.928-.791-.462" transform="translate(103.107 82.691)" fill="#457f2a"/><path d="M216.385,156.419c-13.867,18.511-27.762,37.106-38.957,57.4-.285.517.506.979.791.462,11.2-20.291,25.09-38.887,38.957-57.4.352-.471-.442-.928-.791-.462" transform="translate(95.551 84.16)" fill="#457f2a"/><path d="M176.064,209a31.18,31.18,0,0,0,27.245-.886c.52-.275.058-1.066-.463-.791a30.2,30.2,0,0,1-26.32.886c-.532-.238-1,.549-.462.791" transform="translate(94.721 111.657)" fill="#457f2a"/><path d="M259.8,155.623c-5.119,12.07-13.142,22.762-21.661,32.629-4.6,5.327-9.431,10.449-14.381,15.45q-3.737,3.774-7.558,7.463c-2.393,2.316-5,4.5-7.243,6.96a11.818,11.818,0,0,0-3.311,7.6c-.048,3.378,1.536,6.641,2.664,9.748q3.843,10.578,7.147,21.339,6.481,21.1,10.868,42.77a449.452,449.452,0,0,1,7.2,49.827c.051.583.966.588.916,0a450.89,450.89,0,0,0-15.957-85.651q-3.044-10.534-6.6-20.91-1.78-5.186-3.684-10.326c-1.349-3.674-2.416-7.277-.526-10.983,1.534-3.008,4.455-5.193,6.853-7.492q3.711-3.557,7.364-7.178c4.932-4.9,9.759-9.911,14.382-15.1,9.543-10.717,18.675-22.376,24.318-35.68.228-.535-.562-1-.791-.462" transform="translate(110.786 83.707)" fill="#457f2a"/><path d="M206.011,288.708l4.784,8.889,32.255-9.175-1.8-10.165Z" transform="translate(110.982 149.902)" fill="#9adb40"/><path d="M209.321,51.125S188.285,65.3,182.8,70.783c-8.151,8.151-2.991,30.424,3.711,45.669s6.113,43.944,3.868,54.906c-2.968,14.495-27.106,33.363-17.34,34.583s68.241,16.326,84.694,13.715,35.711-6.86,30.713-23.5c-2.065-6.873-7.452-45.76-9.057-65.423s-8.721-33.247-7.551-53.683c1.1-19.252-12.961-26.451-41.6-30.04Z" transform="translate(91.974 25.324)" fill="#0e4284"/><path d="M177.431,82.289a229.983,229.983,0,0,1,10.476,38.3c.106.579.989.334.883-.243a230.127,230.127,0,0,0-10.476-38.3c-.2-.548-1.088-.311-.883.243" transform="translate(95.569 44.032)" fill="#0e77c0"/><path d="M230.584,88.876a190.068,190.068,0,0,1,16.906,72.872c.259,7.109.172,14.225-.18,21.331-.029.588.886.586.916,0,1.257-25.235-1.16-50.679-9.02-74.771a182.9,182.9,0,0,0-7.832-19.894c-.246-.535-1.036-.071-.789.462" transform="translate(124.195 47.502)" fill="#0e77c0"/><path d="M253.96,72.7s24.078,44.831,29.463,66.37S234.589,182.1,234.589,182.1l-5.956-5.876c21.737-23.741,27.346-35.261,27.346-35.261-2.47-8.046-21.564-47.517-21.564-47.517Z" transform="translate(123.169 39.165)" fill="#f27521"/><path d="M247.2,118.511a26.309,26.309,0,0,1,14.406-2.367c.583.068.579-.849,0-.916a27.152,27.152,0,0,0-14.867,2.491c-.532.254-.068,1.043.462.791" transform="translate(132.795 61.978)" fill="#c74d21"/><path d="M250.08,117.9a13.79,13.79,0,0,1,5.087-4.216c.529-.258.065-1.048-.463-.789a14.708,14.708,0,0,0-5.415,4.544c-.349.474.445.931.791.462" transform="translate(134.25 60.789)" fill="#c74d21"/><path d="M242.675,140.811a8.162,8.162,0,0,1,.315,11.307,20.016,20.016,0,0,0-3.7,5.7c-1.666,4.587-2.362,10.466-3.859,12.544-2.208,3.068-3.011-.928-3.041-1.439a56.343,56.343,0,0,1,.3-7.806s-2.893,7.771-2.734,11.033-2.036,5.221-3.924,2.26-.482-12.184.6-14.633c0,0-3.022,4.332-2.953,8.757s-.5,6.018-1.369,7.586-3.828-.483-3.765-6.663a19.549,19.549,0,0,1,3.073-11.18,32.678,32.678,0,0,0-4.341,4.732c-2.462,3.173-1.976,8.28-4.13,9.34-2.2,1.083-2.505-4.825-1.214-8.158s1.948-5.866,5.095-9.178,6.266-6.372,8.626-7.9,10.036-8.08,14.081-7.8a5.007,5.007,0,0,1,2.936,1.5" transform="translate(113.763 75.043)" fill="#f27521"/><path d="M230.313,141.52s-8.363,1.966-10.476,3.956-6.356,3.864-5.142,5.392,6.372-.92,6.372-.92Z" transform="translate(115.545 76.239)" fill="#f27521"/><path d="M224.951,90.527l19.4,26.778s22.245-9.752,26.206-27.425c0,0-25.572-33.439-34.783-36.68-11.58-4.073-25.2,17.1-10.825,37.326" transform="translate(117.85 28.386)" fill="#0e4284"/><path d="M258.426,73.722c-3.421,12.454-14.881,20.9-26.031,26.178-.532.251-.069,1.042.462.789,11.368-5.375,22.968-14.042,26.451-26.725a.458.458,0,0,0-.882-.243" transform="translate(125.069 39.541)" fill="#0e77c0"/><path d="M228.378,52.053a20.755,20.755,0,0,0-7.654,20.53c.117.568.988.328.869-.24a19.82,19.82,0,0,1,7.24-19.511c.454-.348.006-1.132-.455-.779" transform="translate(118.682 27.993)" fill="#0e77c0"/><path d="M221.647,77.725a252.483,252.483,0,0,1,19.9,25.958c.326.488,1.12.031.791-.462a254.575,254.575,0,0,0-20.042-26.144c-.389-.443-1.034.206-.648.648" transform="translate(119.341 41.442)" fill="#0e77c0"/><path d="M190.834,32.778s-3.482,7.36-.812,8.38,4.7-1.6,4.7-1.6-1.763,5.939,1.933,6.94c2.936.8,4.876-7.407,4.876-7.407Z" transform="translate(101.826 17.657)" fill="#192827"/><path d="M195.219,59.556s19.154,17.209,24.552-.78l-.652-2.964-1.056-7.56-.739-5.295-21.588-6.095c-.369,9.586.892,10.553-.517,22.693" transform="translate(105.168 19.858)" fill="#f27521"/><path d="M198.914,42.055c7.7,12.193,15.76,14.578,18.615,13.844l-1.459-10.445Z" transform="translate(107.159 22.655)" fill="#192827"/><path d="M228.877,34.794S243.53,27.3,241.082,22.876s-6.113-.812-7.1-3.077,6.276-10.4-.766-15.164c-7.352-4.97-10.017,4.048-15.741,5.278s-30.951,5.755-32.293,20.4S196.019,52.962,200.706,57.2c2.551,2.307,9.588,7.28,10.682,6.637,4.816-2.828-.859-33.743,17.489-29.043" transform="translate(99.706 1.697)" fill="#192827"/><path d="M195.186,45.644a18.2,18.2,0,0,0,.629,2.276,14.653,14.653,0,0,0,2.379,4.328,47.739,47.739,0,0,0,5.823,5.809c4.025,3.593,9.6,4.156,14.695,3.164,13.524-2.633,12.945-12.019,9.109-25.61-2.385-8.44-.886-13.678-3.7-16.584l0,0c-.175-.126-.352-.246-.531-.363A19.89,19.89,0,0,0,209.1,15.74c-.971.171-1.891.365-2.768.582-.2.043-.4.094-.594.148-.08.018-.163.04-.24.065-.222.055-.44.115-.655.182-.155.042-.309.088-.46.135-.352.1-.688.214-1.019.325-10.519,3.6-11.919,10.662-11.026,17.183.6,4.433,2.271,8.615,2.845,11.285" transform="translate(103.497 8.309)" fill="#f27521"/><path d="M212.992,27.688a1.01,1.01,0,1,1-1.2-.768,1.007,1.007,0,0,1,1.2.768" transform="translate(113.666 14.489)" fill="#192827"/><path d="M207.474,28.617a1.01,1.01,0,1,1-1.2-.768,1.006,1.006,0,0,1,1.2.768" transform="translate(110.695 14.99)" fill="#192827"/><path d="M210.149,34.94a.357.357,0,0,1-.346-.117.352.352,0,0,1,.043-.5l1.911-1.6-2.419-1.3a.36.36,0,0,1-.178-.235l-1.333-6.2a.356.356,0,0,1,.7-.148l1.3,6.044,2.731,1.468a.351.351,0,0,1,.058.579L210.3,34.865a.36.36,0,0,1-.154.075" transform="translate(111.956 13.228)" fill="#192827"/><path d="M202.639,28.651s.515-3.593,2.794-4.242,3.611,2.383,3.611,2.383Z" transform="translate(109.166 13.1)" fill="#192827"/><path d="M216.016,26s-1.7-3.207-4.064-3.044-2.593,3.465-2.593,3.465Z" transform="translate(112.786 12.361)" fill="#192827"/><path d="M202.764,32.322c.157.734,1.434,1.08,2.853.776s2.439-1.145,2.282-1.879-1.436-1.08-2.853-.776-2.439,1.145-2.282,1.879" transform="translate(109.224 16.34)" fill="#c74d21"/><path d="M217.275,30.92a3.869,3.869,0,0,1-1.911.945c-1.416.3-2.693-.043-2.851-.779s.866-1.573,2.28-1.876a3.959,3.959,0,0,1,2.051.046Z" transform="translate(114.476 15.676)" fill="#c74d21"/><path d="M215.855,32.778s-3.227.337-9.56,1.036c0,0,1.828,6.536,6.34,5.539,3.825-.846,3.221-6.575,3.221-6.575" transform="translate(111.135 17.657)" fill="#fff"/><path d="M212.294,39.312a2.87,2.87,0,0,1-3.011.2c-.5-.3-.006-1.052.491-.754a2.01,2.01,0,0,0,2.1-.242c.5-.294.917.5.417.8" transform="translate(112.633 20.714)" fill="#c74d21"/><path d="M198.989,36.67a7.624,7.624,0,0,1-5.012-.449,14.72,14.72,0,0,0,2.382,4.33,7.629,7.629,0,0,0,2.63-3.881" transform="translate(104.499 19.512)" fill="#192827"/><path d="M194.8,33.3c5.669.3,8.154,9.26,10.568,7.109s-5.875-15.866,1.279-17,6.563.388,9.845-.077c5.582-.791,5.078-3.534,7.166-4.639-.175-.126-.328-.325-.5-.442a20.124,20.124,0,0,0-14.59-2.831c-.971.171-1.891.365-2.768.582-.2.043-.4.094-.592.148-.083.018-.165.04-.242.065-.222.055-.44.115-.655.182-.155.042-.309.086-.46.135-.348.1-.689.209-1.019.325-10.519,3.6-11.917,10.662-11.026,17.183a4.694,4.694,0,0,1,3-.743" transform="translate(103.206 8.131)" fill="#192827"/><path d="M204.587,37.487a7.54,7.54,0,0,0-2.3-6.2c-2.146-2.1-5.947-5.238-8.725-4.227-4.084,1.486-3.782,5.316-2.553,9.02s4.8,8.132,9.882,6.2a5.507,5.507,0,0,0,3.7-4.793" transform="translate(102.463 14.471)" fill="#f27521"/><path d="M192.916,30.885a29.716,29.716,0,0,1,6.127,5.455c.338.4,1.022-.054.68-.455a31.067,31.067,0,0,0-6.44-5.73c-.439-.292-.8.442-.368.731" transform="translate(103.823 16.207)" fill="#27293e"/></svg>