<svg xmlns="http://www.w3.org/2000/svg" xmlns:xlink="http://www.w3.org/1999/xlink" width="112.512" height="91.659" viewBox="0 0 112.512 91.659"><defs><clipPath id="a"><rect width="112.512" height="91.659" transform="translate(0 0)" fill="#afacac"/></clipPath></defs><g transform="translate(-273 37)" style="isolation:isolate"><g transform="translate(273 -37)" clip-path="url(#a)"><path d="M31.925,52.758c5.594-1.166,10.741-2.342,15.932-3.282,3.028-.548,6.12-.77,9.193-1.024a8.368,8.368,0,0,1,2.815.385c2.066.565,2.588,2.223.9,3.524A62.69,62.69,0,0,1,53.525,56.9a45.353,45.353,0,0,1-4.334,1.936l1.323,1.47c-.614.222-1.3.746-1.828.618-3.695-.9-6.906.681-10.263,1.722-10.392,3.223-20.852,6.186-31.8,6.841a15.428,15.428,0,0,1-4.377-.225c-2.549-.6-3.054-2.413-.885-3.81a89.678,89.678,0,0,1,11.187-6.08c3.194-1.464,6.633-2.4,9.963-3.564.673-.236,1.345-.479,2.362-.842-2.781-3.288-5.437-6.286-7.935-9.41-4.306-5.386-8.916-10.59-12.661-16.349C-.144,22.409,1.544,12,7.927,5.683c5.4-5.339,13.108-7.625,21.56-3.733A18.69,18.69,0,0,1,39.77,21.477c-1.222,7.119-3.336,14.087-5.1,21.109-.835,3.32-1.779,6.612-2.743,10.172M28.881,57.9c.265-.349.4-.451.433-.579,2.935-10.9,5.887-21.8,8.778-32.707A18.122,18.122,0,0,0,35.8,10.024a17.119,17.119,0,0,0-29-.988,19.2,19.2,0,0,0,.492,22.289c2.814,3.839,5.866,7.506,8.877,11.2,4.168,5.107,8.4,10.164,12.717,15.382M.793,67.76a11.649,11.649,0,0,0,2.334.447c3.87-.311,7.845-.222,11.58-1.119,9.555-2.3,19.095-4.751,28.457-7.72,5.349-1.7,10.355-4.49,15.476-6.873a10.521,10.521,0,0,0,2.139-1.815l-.315-.6c-2.9,0-5.858-.387-8.677.079-6,.993-11.931,2.446-17.9,3.671-1.717.353-2.973.971-3.183,3A14.945,14.945,0,0,1,29.555,60.1a30.177,30.177,0,0,0-2.774-2.96,2.48,2.48,0,0,0-2-.534C17.886,59.331,11.016,62.111,4.2,65c-1.112.472-1.961,1.561-3.4,2.755" fill="#afacac"/><path d="M77.679,60.177l-10.062.644c.374-1.462.372-1.5,4.315-1.732,1.735-.1,3.481-.017,5.387-.017-.377-3.342-.7-6.229-1.028-9.116L77,49.6c.331.5.857.962.957,1.5a37.521,37.521,0,0,1,.589,4.806c.107,1.98,1.076,2.724,2.99,2.5a35.746,35.746,0,0,1,3.726-.259,5.4,5.4,0,0,1,1.481.417l-.081.713-7.354.736c.739,2.887,1.423,5.558,2.107,8.228l-.4.5c-.463-.383-1.2-.683-1.344-1.164-.734-2.377-1.313-4.8-2-7.406" fill="#afacac"/><path d="M75.868,45.993c.444-3.472.862-6.749,1.281-10.025l.941-.12a6.012,6.012,0,0,1,.4,1.883c-.327,2.721-.759,5.43-1.209,8.134a6.567,6.567,0,0,1-1.416.128" fill="#afacac"/><path d="M86.43,24.3c-2.025,2.534-4.04,5.076-6.105,7.576-.1.116-.641-.139-1.145-.262,1.394-3.543,3.466-6.222,7.25-7.314" fill="#afacac"/><path d="M83.052,72.424c.525,3.375,2.73,5.953,2.52,9.1l-1.054.317c-.979-2.838-1.969-5.673-2.889-8.53a7.79,7.79,0,0,1,1.423-.892" fill="#afacac"/><path d="M111.072,47.762l-7.137,5.845-.616-.323c.029-.449-.121-1.121.117-1.312,2.266-1.82,4.6-3.558,6.912-5.32l.724,1.11" fill="#afacac"/><path d="M106.893,33.346c-1.8-1.685-3.476-3.193-5.062-4.79-.334-.336-.337-1-.644-2.012,5.019,2.858,7.148,5.684,5.706,6.8" fill="#afacac"/><path d="M62.962,59.673c-.167,1.568-3.84,2.1-7.855,1.148.6-1.379,3.3-1.774,7.855-1.148" fill="#afacac"/><path d="M100.444,54.856a26.205,26.205,0,0,1-9.656,3.2c1.5-1.758,8.076-3.99,9.656-3.2" fill="#afacac"/><path d="M110.513,36.2q1,3.437,2,6.872l-.763.392c-.4-.392-1.034-.72-1.161-1.186-.534-1.962-.918-3.964-1.356-5.952l1.281-.126" fill="#afacac"/><path d="M90.344,23.834c2.182-1.235,6.7-.186,7.907,1.849l-7.907-1.849" fill="#afacac"/><path d="M86.088,85.617a7.038,7.038,0,0,1,1.582-.352c1.028,1.943,1.983,3.925,2.952,5.9l-.9.5-3.629-6.043" fill="#afacac"/><path d="M20.568,27.582c-4.516-.373-8.237-3.261-8.539-6.907a8.568,8.568,0,0,1,7.24-8.845,16.883,16.883,0,0,1,6.446.581,6.355,6.355,0,0,1,4.721,5.757,7.043,7.043,0,0,1-3.8,7.125,36.215,36.215,0,0,1-6.07,2.289m.213-.984a32.294,32.294,0,0,0,5.069-1.87,6.391,6.391,0,0,0,1.812-9.976c-2.259-2.53-5.246-2.866-8.3-2.026s-5.482,2.616-6.142,5.948C12.429,22.652,16,26.222,20.781,26.6" fill="#afacac"/></g></g></svg>