<svg xmlns="http://www.w3.org/2000/svg" xmlns:xlink="http://www.w3.org/1999/xlink" width="111.916" height="79.909" viewBox="0 0 111.916 79.909"><defs><clipPath id="a"><rect width="111.916" height="79.909" fill="#dddada"/></clipPath></defs><g clip-path="url(#a)"><path d="M51.99,79.909a35.184,35.184,0,0,1-21.719-7,3.129,3.129,0,0,0-1.983-.676,64.43,64.43,0,0,1-17.555-.623C5.245,70.724.4,66.525.037,61.68c-.376-4.966,2.129-8.888,5.868-11.726a76.074,76.074,0,0,1,10.552-6.228c1.349-.714,1.976-1.387,1.958-2.964-.131-12.01,4.118-22.32,12.925-30.44C39.079,3.187,48.327-.809,59.066.138c7.36.648,14.168,3.1,19.636,8.395,3.1,3,6.224,5.968,9.176,9.1a1.821,1.821,0,0,0,2.467.376,22.323,22.323,0,0,1,13.321-1.645,10.6,10.6,0,0,1,8.2,11.56c-.608,6.426-4.689,10.219-9.485,13.548a2.558,2.558,0,0,0-1.345,3.014c1.544,8.058-1.675,14.457-7.221,19.97A37.977,37.977,0,0,1,79.35,73.073c-5.312,1.877-10.641,3.766-16.082,5.194-3.651.958-7.512,1.123-11.278,1.642m25.9-67.538C71.617,7.16,64.166,3.653,55.271,4.145,44.618,4.735,35.7,9.3,29.45,17.724c-8.088,10.9-9.1,23.311-5.427,36.214.45,1.582,1.277,1.934,2.765,1.47,2.022-.63,4.1-1.083,6.1-1.764a3.17,3.17,0,0,0,1.478-1.413c.87-1.517,1.546-3.144,2.407-4.666a12.18,12.18,0,0,1,19.656-2.288,2.508,2.508,0,0,0,3.039.807C64.4,44.66,69.4,43.471,74.274,41.9c5.374-1.735,10.642-3.76,15.293-7.135,3.452-2.5,3.524-2.409,1.328-6.04-.064-.106-.245-.142-.494-.277a10.833,10.833,0,0,0-1.314.994c-2.476,2.5-5.544,3.152-8.906,2.918-4.7-.327-8.61-5.189-7.2-9.619,1.1-3.471,3.109-6.657,4.906-10.367M19.266,47.795l-.734-.467c-4.863,1.728-9.268,4.189-12.483,8.416a10.319,10.319,0,0,0-1.4,2.968c-1.039,3.09-.034,5.8,2.887,7.181a26.23,26.23,0,0,0,6.617,2.327,48.131,48.131,0,0,0,22.029-1.34c7.587-2.267,15.093-4.832,22.546-7.51,6.481-2.328,13.076-4.529,19.2-7.621,9.275-4.683,18.744-9.135,26.648-16.188a12.183,12.183,0,0,0,4.355-8.042,6.077,6.077,0,0,0-3.529-6.5c-3.76-2.017-7.675-1.618-11.534-.4-.937.3-2.455,1.463-2.348,1.883.511,2,1.932.618,3.02.451.435-.066.856-.219,1.29-.3a3.972,3.972,0,0,1,4.67,4.564,9.511,9.511,0,0,1-1.59,3.8A30.1,30.1,0,0,1,86.08,41.163c-6.922,2.764-13.914,5.429-21.048,7.565C52.6,52.452,40.044,55.771,27.519,59.18A37.831,37.831,0,0,1,20.187,60.5c-2.735.184-5.226-1.434-5.775-3.241-.661-2.175.449-4.861,2.7-6.511.355-.261.855-.414,1.073-.754a19.533,19.533,0,0,0,1.083-2.2M35.631,71.43c2.314,1.91,5.183,2.832,8.141,3.615a1.915,1.915,0,0,0,2.479-1.03C50.09,68.129,59.117,66.231,64,70.65c2.949,2.672,5.535,2.682,9.152,1.495,8.183-2.686,15.531-6.51,21.23-13.048a16.274,16.274,0,0,0,4.356-11.444,10.732,10.732,0,0,0-.57-2.26,14.69,14.69,0,0,0-2.129.711c-1.108.56-2.168,1.218-3.225,1.873-1.967,1.218-3.682,2.377-4.351,5.033-1.047,4.153-4.258,6.768-8.13,8.415a9.3,9.3,0,0,1-9.944-1.2,2.961,2.961,0,0,0-2.372-.169c-10.718,3.716-21.41,7.5-32.382,11.37m45.682-56.3c-1.7,2.531-3.117,4.447-4.293,6.5a4.528,4.528,0,0,0-.332,2.729c.373,2.5,1.895,3.747,4.5,3.936,3.493.254,5.825-.807,6.555-3.151a2.583,2.583,0,0,0-.287-2c-1.83-2.527-3.784-4.964-6.143-8.012M53.489,48.305c-1.439-2.592-2.9-3.315-6.164-2.835-3.835.565-6.2,3.1-8.028,6.2q.144.3.289.605l13.9-3.97m9.2,26.645c-3.125-4.533-11.754-2.927-12.712,1.528L62.692,74.95m10.774-17.2c4.062,1.847,9.22-.679,9.949-4.514l-9.949,4.514M20.4,53.329c-.9,1.257-1.418,1.968-2.145,2.979l3.165.45c-.357-1.2-.588-1.975-1.02-3.429" fill="#dddada"/><path d="M43.8,22.73a10.82,10.82,0,0,1-.634,2.965c-1.968,3.654-3.908,7.344-6.2,10.793a6.17,6.17,0,0,1-6.314,2.819c-2.284-.413-3.579-2.192-4.179-4.376a11.548,11.548,0,0,1-.523-3.233c.114-5.279,1.9-9.775,6.689-12.517a26.08,26.08,0,0,1,5.7-2.233c2.607-.755,5.331,2.276,5.466,5.782M29.393,30.913l.588.273a2.068,2.068,0,0,0,.01.654c.4,1.129.826,2.248,1.244,3.37,1.03-.426,2.515-.559,3.012-1.328,2.271-3.517,4.334-7.176,6.245-10.9.182-.356-1.522-2.3-1.816-2.178-2.1.847-4.549,1.62-5.948,3.229-1.614,1.858-2.266,4.55-3.335,6.88" fill="#dddada"/><path d="M57.058,22.65c-6.48-.025-8.962-4-6.427-9.148C52.868,8.96,59.5,6.162,63.983,7.869a6.063,6.063,0,0,1,3.079,8.864c-2.42,4.031-6.388,5.317-10,5.917m-1.03-3.706c2.608-.474,5.292-1.1,7.35-3.251,1.679-1.752,1.338-3.492-.944-4.429-2.635-1.081-7.392,1.456-8.666,4.622-.812,2.018-.06,3.113,2.26,3.058" fill="#dddada"/></g></svg>