<svg xmlns="http://www.w3.org/2000/svg" width="156" height="170" viewBox="0 0 156 170"><g transform="translate(-1229 -966)"><text transform="translate(1229 966)" fill="#ff7152" font-size="22" font-family="SegoeUI, Segoe UI"><tspan x="0" y="24">+</tspan></text><text transform="translate(1229 1001)" fill="#e5e5e5" font-size="22" font-family="SegoeUI, Segoe UI"><tspan x="0" y="24">+</tspan></text><text transform="translate(1229 1024)" fill="#e5e5e5" font-size="22" font-family="SegoeUI, Segoe UI"><tspan x="0" y="24">+</tspan></text><text transform="translate(1264 966)" fill="#e5e5e5" font-size="22" font-family="SegoeUI, Segoe UI"><tspan x="0" y="24">+</tspan></text><text transform="translate(1264 1001)" fill="#e5e5e5" font-size="22" font-family="SegoeUI, Segoe UI"><tspan x="0" y="24">+</tspan></text><text transform="translate(1264 1024)" fill="#e5e5e5" font-size="22" font-family="SegoeUI, Segoe UI"><tspan x="0" y="24">+</tspan></text><text transform="translate(1264 1071)" fill="#e5e5e5" font-size="22" font-family="SegoeUI, Segoe UI"><tspan x="0" y="24">+</tspan></text><text transform="translate(1299 966)" fill="#e5e5e5" font-size="22" font-family="SegoeUI, Segoe UI"><tspan x="0" y="24">+</tspan></text><text transform="translate(1299 1001)" fill="#e5e5e5" font-size="22" font-family="SegoeUI, Segoe UI"><tspan x="0" y="24">+</tspan></text><text transform="translate(1299 1024)" fill="#6246e5" font-size="22" font-family="SegoeUI, Segoe UI"><tspan x="0" y="24">+</tspan></text><text transform="translate(1299 1071)" fill="#e5e5e5" font-size="22" font-family="SegoeUI, Segoe UI"><tspan x="0" y="24">+</tspan></text><text transform="translate(1299 1106)" fill="#e5e5e5" font-size="22" font-family="SegoeUI, Segoe UI"><tspan x="0" y="24">+</tspan></text><text transform="translate(1334 966)" fill="#e5e5e5" font-size="22" font-family="SegoeUI, Segoe UI"><tspan x="0" y="24">+</tspan></text><text transform="translate(1334 1001)" fill="#e5e5e5" font-size="22" font-family="SegoeUI, Segoe UI"><tspan x="0" y="24">+</tspan></text><text transform="translate(1334 1024)" fill="#e5e5e5" font-size="22" font-family="SegoeUI, Segoe UI"><tspan x="0" y="24">+</tspan></text><text transform="translate(1334 1071)" fill="#e5e5e5" font-size="22" font-family="SegoeUI, Segoe UI"><tspan x="0" y="24">+</tspan></text><text transform="translate(1334 1106)" fill="#e5e5e5" font-size="22" font-family="SegoeUI, Segoe UI"><tspan x="0" y="24">+</tspan></text><text transform="translate(1369 966)" fill="#e5e5e5" font-size="22" font-family="SegoeUI, Segoe UI"><tspan x="0" y="24">+</tspan></text><text transform="translate(1369 1001)" fill="#e5e5e5" font-size="22" font-family="SegoeUI, Segoe UI"><tspan x="0" y="24">+</tspan></text><text transform="translate(1369 1024)" fill="#e5e5e5" font-size="22" font-family="SegoeUI, Segoe UI"><tspan x="0" y="24">+</tspan></text><text transform="translate(1369 1071)" fill="#e5e5e5" font-size="22" font-family="SegoeUI, Segoe UI"><tspan x="0" y="24">+</tspan></text><text transform="translate(1369 1106)" fill="#e5e5e5" font-size="22" font-family="SegoeUI, Segoe UI"><tspan x="0" y="24">+</tspan></text></g></svg>