<?xml version="1.0" standalone="no"?>
<!DOCTYPE svg PUBLIC "-//W3C//DTD SVG 20010904//EN"
 "http://www.w3.org/TR/2001/REC-SVG-20010904/DTD/svg10.dtd">
<svg version="1.0" xmlns="http://www.w3.org/2000/svg"
 width="399.000000pt" height="399.000000pt" viewBox="0 0 399.000000 399.000000"
 preserveAspectRatio="xMidYMid meet">

<g transform="translate(0.000000,399.000000) scale(0.100000,-0.100000)"
fill="#000000" stroke="none">
<path d="M980 3805 c-407 -64 -734 -394 -795 -804 -22 -141 -22 -1871 0 -2012
62 -414 390 -742 804 -804 141 -22 1871 -22 2012 0 414 62 742 390 804 804 22
141 22 1871 0 2012 -62 415 -389 742 -804 804 -134 21 -1891 20 -2021 0z
m2080 -142 c105 -31 163 -57 255 -118 173 -115 294 -286 351 -500 18 -66 19
-124 19 -1050 0 -926 -1 -984 -19 -1050 -84 -314 -307 -537 -621 -621 -66 -18
-124 -19 -1050 -19 -926 0 -984 1 -1050 19 -314 84 -537 307 -621 621 -18 66
-19 124 -19 1050 0 926 1 984 19 1050 84 314 320 550 621 619 39 9 84 18 100
20 17 2 460 3 985 2 949 -1 955 -2 1030 -23z"/>
<path d="M2648 3390 c-166 -42 -432 -234 -639 -462 -109 -119 -270 -314 -373
-450 -49 -65 -90 -118 -92 -118 -2 0 21 46 50 103 154 293 240 454 300 564 38
67 65 126 63 130 -3 5 -42 6 -86 2 -132 -11 -184 -53 -320 -253 -322 -475
-567 -1061 -537 -1286 17 -124 72 -202 142 -202 33 0 45 6 74 40 19 21 59 84
89 138 29 54 99 174 153 266 l100 168 25 -20 c38 -29 99 -43 161 -35 63 8 150
36 332 110 74 30 167 62 205 71 81 19 185 15 230 -9 115 -59 174 -233 130
-382 -48 -168 -163 -317 -435 -566 -237 -217 -341 -284 -456 -296 -44 -5 -62
-1 -108 21 -68 33 -96 74 -96 142 0 78 31 127 164 259 113 113 245 214 341
263 22 11 114 46 205 77 213 75 246 89 260 116 18 34 -4 46 -105 60 -173 23
-384 -8 -554 -80 -274 -116 -565 -388 -652 -608 -19 -49 -23 -77 -24 -179 0
-119 1 -122 35 -189 41 -81 108 -141 197 -176 51 -21 74 -23 193 -23 166 1
255 24 435 114 430 214 789 647 906 1092 31 118 31 261 -1 342 -32 83 -99 147
-203 196 -78 36 -191 70 -233 70 -12 0 0 13 36 37 74 50 208 184 259 261 92
137 141 274 141 397 0 185 -78 292 -218 301 -31 2 -74 -1 -94 -6z m1 -289 c58
-30 74 -59 69 -125 -6 -71 -49 -143 -148 -243 -213 -218 -580 -436 -674 -400
-21 8 -6 59 59 192 100 205 255 415 376 510 120 94 221 115 318 66z"/>
</g>
</svg>
