<svg width="1920" height="1658" viewBox="0 0 1920 1658" fill="none" xmlns="http://www.w3.org/2000/svg">
<path d="M928 -429L928.056 612.957L1037.02 -423.286L928.16 612.971L1144.85 -406.208L928.271 612.992L1250.31 -377.952L928.375 613.026L1352.22 -338.828L928.473 613.068L1449.5 -289.264L928.57 613.124L1541.06 -229.805L928.654 613.187L1625.91 -161.1L928.737 613.263L1703.1 -83.9033L928.814 613.346L1771.81 0.939941L928.876 613.43L1831.27 92.5L928.932 613.527L1880.83 189.774L928.974 613.625L1919.95 291.692L929.008 613.729L1948.21 397.146L929.029 613.84L1965.28 504.979L929.043 613.944L1971 614L929.043 614.056L1965.28 723.021L929.029 614.16L1948.21 830.854L929.008 614.271L1919.95 936.308L928.974 614.375L1880.83 1038.22L928.932 614.473L1831.27 1135.5L928.876 614.57L1771.81 1227.06L928.814 614.654L1703.1 1311.91L928.737 614.737L1625.91 1389.1L928.654 614.814L1541.06 1457.81L928.57 614.876L1449.5 1517.27L928.473 614.932L1352.22 1566.83L928.375 614.974L1250.31 1605.95L928.271 615.008L1144.85 1634.21L928.16 615.029L1037.02 1651.28L928.056 615.043L928 1657L927.944 615.043L818.979 1651.28L927.84 615.029L711.146 1634.21L927.729 615.008L605.692 1605.95L927.625 614.974L503.774 1566.83L927.527 614.932L406.5 1517.27L927.43 614.876L314.94 1457.81L927.346 614.814L230.097 1389.1L927.263 614.737L152.9 1311.91L927.187 614.654L84.1949 1227.06L927.124 614.57L24.7356 1135.5L927.068 614.473L-24.8278 1038.22L927.026 614.375L-63.9519 936.308L926.992 614.271L-92.2079 830.854L926.971 614.16L-109.286 723.021L926.957 614.056L-115 614L926.957 613.944L-109.286 504.979L926.971 613.84L-92.2079 397.146L926.992 613.729L-63.9519 291.692L927.026 613.625L-24.8278 189.774L927.068 613.527L24.7356 92.5L927.124 613.43L84.1949 0.939941L927.187 613.346L152.9 -83.9033L927.263 613.263L230.097 -161.1L927.346 613.187L314.94 -229.805L927.43 613.124L406.5 -289.264L927.527 613.068L503.774 -338.828L927.625 613.026L605.692 -377.952L927.729 612.992L711.146 -406.208L927.84 612.971L818.979 -423.286L927.944 612.957L928 -429Z" stroke="url(#paint0_radial_42_2640)" stroke-opacity="0.8" stroke-width="0.433045" stroke-linejoin="round"/>
<defs>
<radialGradient id="paint0_radial_42_2640" cx="0" cy="0" r="1" gradientUnits="userSpaceOnUse" gradientTransform="translate(928 614) rotate(90) scale(1043)">
<stop offset="0.66" stop-color="white" stop-opacity="0.44"/>
<stop offset="1" stop-color="#E95B47"/>
</radialGradient>
</defs>
</svg>
