<svg xmlns="http://www.w3.org/2000/svg" viewBox="0 0 202.76 130.53"><defs><style>.cls-1{fill:#df3226;}</style></defs><title>Asset 14</title><g id="Layer_2" data-name="Layer 2"><g id="Layer_1-2" data-name="Layer 1"><path class="cls-1" d="M201.72,54.37c-2.64-15-11.62-30-24-40-10.38-8.44-28-17.57-53.1-13.18-6.19,1.08-10,5.06-9.51,9.89.45,4.27,4.34,7.25,7.94,8a16.68,16.68,0,0,0,6.43-.25c.5-.09,1-.18,1.49-.24a45.93,45.93,0,0,1,38,12.52c10.46,9.85,16.41,24,15.53,36.83-1.37,20-11.08,33.75-28.86,40.76-18.09,7.14-35,3.81-48.84-9.62A197.18,197.18,0,0,1,92.67,83.24c-1.68-2-3.39-4.08-5.14-6.12l61.72-11.44-17-20c-6.28-7.38-12.77-15-19.2-22.48A64.49,64.49,0,0,0,64.11.44H62.9A64.8,64.8,0,0,0,13.45,25.28c-16.15,20.3-18,50.79-4.31,72.51,13.46,21.41,33.2,32.75,56.48,32.74a76.66,76.66,0,0,0,12.72-1.08c6-1,8-4.82,8.65-7a8.43,8.43,0,0,0-.66-6.58,8.15,8.15,0,0,0-5.1-3.86,18.1,18.1,0,0,0-7.64-.08A46.67,46.67,0,0,1,32.53,98.47C21.58,87.49,16.24,72,18.61,58,21.7,39.68,31.77,27.38,48.52,21.45c17.66-6.24,33.27-3.1,46.39,9.33a195,195,0,0,1,15.28,16.95c1.59,1.91,3.23,3.86,4.88,5.8L53.45,64.93l5.67,6.65q5.16,6.06,10.17,12c7.84,9.27,15.24,18,23,26.78,8.62,9.7,19.89,15.94,33.49,18.54,21.46,4.11,42.56-2.19,57.88-17.28A63.74,63.74,0,0,0,201.72,54.37Z"/></g></g></svg>